  0
SECTION
  2
HEADER
  9
$ACADVER
  1
AC1009
  9
$INSBASE
 10
0
 20
0
 30
0
  9
$EXTMIN
 10
0
 20
0
  9
$EXTMAX
 10
420
 20
297
  9
$LIMMIN
 10
0
 20
0
  9
$LIMMAX
 10
420
 20
297
  9
$LTSCALE
 40
1
  0
ENDSEC
  0
SECTION
  2
TABLES
  0
TABLE
  2
LTYPE
 70
     9
  0
LTYPE
  2
CONTINUOUS
 70
    64
  3
実線
 72
    65
 73
     0
 40
0.0
  0
LTYPE
  2
DASHED1
 70
    64
  3
--  --  --  --  --  --  --  --  
 72
    65
 73
     2
 40
2.5
 49
1.25
 49
-1.25
  0
LTYPE
  2
DASHED2
 70
    64
  3
----    ----    ----    ----    
 72
    65
 73
     2
 40
5.0
 49
2.5
 49
-2.5
  0
LTYPE
  2
DASHED3
 70
    64
  3
------  ------  ------  ------  
 72
    65
 73
     2
 40
5.0
 49
3.75
 49
-1.25
  0
LTYPE
  2
CENTER1
 70
    64
  3
----- - ----- - ----- - ----- - 
 72
    65
 73
     4
 40
10.0
 49
6.25
 49
-1.25
 49
1.25
 49
-1.25
  0
LTYPE
  2
CENTER2
 70
    64
  3
----------  --  ----------  --  
 72
    65
 73
     4
 40
20.0
 49
12.5
 49
-2.5
 49
2.5
 49
-2.5
  0
LTYPE
  2
PHANTOM1
 70
    64
  3
--- - - --- - - --- - - --- - - 
 72
    65
 73
     6
 40
10.0
 49
3.25
 49
-1.25
 49
1.25
 49
-1.25
 49
1.25
 49
-1.25
  0
LTYPE
  2
PHANTOM2
 70
    64
  3
--------  -  -  --------  -  -  
 72
    65
 73
     6
 40
20.0
 49
10.0
 49
-2.5
 49
1.25
 49
-2.5
 49
1.25
 49
-2.5
  0
LTYPE
  2
DOT
 70
    64
  3
-   -   -   -   -   -   -   -   
 72
    65
 73
     2
 40
2.5
 49
0.625
 49
-1.875
  0
LTYPE
  2
DUMMY
 70
    64
  3
ダミー
 72
    65
 73
     0
 40
0.0
  0
LTYPE
  2
RAND1
 70
    64
  3
ランダム線1
 72
    65
 73
     4
 40
10.0
 49
1.0
 49
-2.0
 49
3.0
 49
-4.0
  0
LTYPE
  2
RAND2
 70
    64
  3
ランダム線2
 72
    65
 73
     4
 40
14.0
 49
2.0
 49
-3.0
 49
4.0
 49
-5.0
  0
LTYPE
  2
RAND3
 70
    64
  3
ランダム線3
 72
    65
 73
     4
 40
18.0
 49
3.0
 49
-4.0
 49
5.0
 49
-6.0
  0
LTYPE
  2
RAND4
 70
    64
  3
ランダム線4
 72
    65
 73
     4
 40
22.0
 49
4.0
 49
-5.0
 49
6.0
 49
-7.0
  0
LTYPE
  2
RAND5
 70
    64
  3
ランダム線5
 72
    65
 73
     4
 40
26.0
 49
5.0
 49
-6.0
 49
7.0
 49
-8.0
  0
LTYPE
  2
LONG1
 70
    64
  3
----------  --  ----------  --  
 72
    65
 73
     4
 40
40.0
 49
32.5
 49
-2.5
 49
2.5
 49
-2.5
  0
LTYPE
  2
LONG2
 70
    64
  3
--------  -  -  --------  -  -  
 72
    65
 73
     6
 40
40.0
 49
30.0
 49
-2.5
 49
1.25
 49
-2.5
 49
1.25
 49
-2.5
  0
LTYPE
  2
LONG3
 70
    64
  3
+++++++++++++++..+++++++++++++++
 72
    65
 73
     2
 40
40.0
 49
37.5
 49
-2.5
  0
LTYPE
  2
LONG4
 70
    64
  3
+++++++++++++++..+++++++++++++++
 72
    65
 73
     2
 40
80.0
 49
75.0
 49
-5.0
  0
LTYPE
  2
LONG5
 70
    64
  3
----------  --  ----------  --  
 72
    65
 73
     4
 40
60.0
 49
37.5
 49
-7.5
 49
7.5
 49
-7.5
  0
LTYPE
  2
dashed
 70
   64
  3
-------   -------------   ------
 72
   65
 73
    2
 40
7.5
 49
6
 49
-1.5
  0
LTYPE
  2
dashed_spaced
 70
   64
  3
----        --------        ----
 72
   65
 73
    2
 40
12
 49
6
 49
-6
  0
LTYPE
  2
long_dashed_dotted
 70
   64
  3
------------- --- --------------
 72
   65
 73
    4
 40
15.25
 49
12
 49
-1.5
 49
0.25
 49
-1.5
  0
LTYPE
  2
long_dashed_double-dotted
 70
   64
  3
----------- --- --- ------------
 72
   65
 73
    6
 40
17
 49
12
 49
-1.5
 49
0.25
 49
-1.5
 49
0.25
 49
-1.5
  0
LTYPE
  2
long_dashed_triplicate-dotted
 70
   64
  3
--------- --- --- --- ----------
 72
   65
 73
    8
 40
18.75
 49
12
 49
-1.5
 49
0.25
 49
-1.5
 49
0.25
 49
-1.5
 49
0.25
 49
-1.5
  0
LTYPE
  2
dotted
 70
   64
  3
   -       -       -       -    
 72
   65
 73
    2
 40
1.75
 49
0.25
 49
-1.5
  0
LTYPE
  2
chain
 70
   64
  3
-------------- -- --------------
 72
   65
 73
    4
 40
18.5
 49
12
 49
-1.5
 49
3.5
 49
-1.5
  0
LTYPE
  2
chain_double_dash
 70
   64
  3
------------ -- -- -------------
 72
   65
 73
    6
 40
23.5
 49
12
 49
-1.5
 49
3.5
 49
-1.5
 49
3.5
 49
-1.5
  0
LTYPE
  2
dashed_dotted
 70
   64
  3
-----------     -     ----------
 72
   65
 73
    4
 40
9.25
 49
6
 49
-1.5
 49
0.25
 49
-1.5
  0
LTYPE
  2
double-dashed_dotted
 70
   64
  3
------   -----------   -   -----
 72
   65
 73
    6
 40
16.75
 49
6
 49
-1.5
 49
6
 49
-1.5
 49
0.25
 49
-1.5
  0
LTYPE
  2
dashed_double-dotted
 70
   64
  3
---------    -    -    ---------
 72
   65
 73
    6
 40
11
 49
6
 49
-1.5
 49
0.25
 49
-1.5
 49
0.25
 49
-1.5
  0
LTYPE
  2
double-dashed_double-dotted
 70
   64
  3
-----   ---------   -   -   ----
 72
   65
 73
    8
 40
18.5
 49
6
 49
-1.5
 49
6
 49
-1.5
 49
0.25
 49
-1.5
 49
0.25
 49
-1.5
  0
LTYPE
  2
dashed_triplicate-dotted
 70
   64
  3
-------    -    -    -    ------
 72
   65
 73
    8
 40
12.75
 49
6
 49
-1.5
 49
0.25
 49
-1.5
 49
0.25
 49
-1.5
 49
0.25
 49
-1.5
  0
LTYPE
  2
double-dashed_triplicate-dotted
 70
   64
  3
-----  ---------  -  -  -  -----
 72
   65
 73
   10
 40
20.25
 49
6
 49
-1.5
 49
6
 49
-1.5
 49
0.25
 49
-1.5
 49
0.25
 49
-1.5
 49
0.25
 49
-1.5
  0
LTYPE
  2
undefined
 70
   64
  3
--------------------------------
 72
   65
 73
    0
 40
0
  0
LTYPE
  2
_
 70
   64
  3
                                
 72
   65
 73
    0
 40
0
  0
LTYPE
  2
__18
 70
   64
  3
                                
 72
   65
 73
    0
 40
0
  0
LTYPE
  2
__19
 70
   64
  3
                                
 72
   65
 73
    0
 40
0
  0
LTYPE
  2
__20
 70
   64
  3
                                
 72
   65
 73
    0
 40
0
  0
LTYPE
  2
__21
 70
   64
  3
                                
 72
   65
 73
    0
 40
0
  0
LTYPE
  2
__22
 70
   64
  3
                                
 72
   65
 73
    0
 40
0
  0
LTYPE
  2
__23
 70
   64
  3
                                
 72
   65
 73
    0
 40
0
  0
LTYPE
  2
__24
 70
   64
  3
                                
 72
   65
 73
    0
 40
0
  0
LTYPE
  2
__25
 70
   64
  3
                                
 72
   65
 73
    0
 40
0
  0
LTYPE
  2
__26
 70
   64
  3
                                
 72
   65
 73
    0
 40
0
  0
LTYPE
  2
__27
 70
   64
  3
                                
 72
   65
 73
    0
 40
0
  0
LTYPE
  2
__28
 70
   64
  3
                                
 72
   65
 73
    0
 40
0
  0
LTYPE
  2
__29
 70
   64
  3
                                
 72
   65
 73
    0
 40
0
  0
LTYPE
  2
__30
 70
   64
  3
                                
 72
   65
 73
    0
 40
0
  0
LTYPE
  2
__31
 70
   64
  3
                                
 72
   65
 73
    0
 40
0
  0
LTYPE
  2
__32
 70
   64
  3
                                
 72
   65
 73
    0
 40
0
  0
ENDTAB
  0
TABLE
  2
STYLE
  5
3
100
AcDbSymbolTable
 70
     1
  0
STYLE
  5
10
100
AcDbSymbolTableRecord
100
AcDbTextStyleTableRecord
  2
STANDARD
 70
     0
 40
0.0
 41
1.0
 50
0.0
 71
     0
 42
0.2
  3
txt
  4
bigfont.shx
  0
STYLE
  5
26
100
AcDbSymbolTableRecord
100
AcDbTextStyleTableRecord
  2
TATEGAKI
 70
    68
 40
0.0
 41
1.0
 50
0.0
 71
     0
 42
1.0
  3
txt
  4
bigfont.shx
  0
ENDTAB
  0
TABLE
  2
LAYER
 70
   11
  0
LAYER
  2
_0-0_
 70
   64
 62
    7
  6
CONTINUOUS
  0
LAYER
  2
_0-1_
 70
   64
 62
    7
  6
CONTINUOUS
  0
LAYER
  2
_0-2_
 70
   64
 62
    7
  6
CONTINUOUS
  0
LAYER
  2
_0-3_
 70
   64
 62
    7
  6
CONTINUOUS
  0
LAYER
  2
_0-4_
 70
   64
 62
    7
  6
CONTINUOUS
  0
LAYER
  2
_0-8_
 70
   64
 62
    7
  6
CONTINUOUS
  0
LAYER
  2
_0-9_
 70
   64
 62
    7
  6
CONTINUOUS
  0
LAYER
  2
_0-a_
 70
   64
 62
    7
  6
CONTINUOUS
  0
LAYER
  2
_0-b_
 70
   64
 62
    7
  6
CONTINUOUS
  0
LAYER
  2
_0-c_
 70
   64
 62
    7
  6
CONTINUOUS
  0
LAYER
  2
ADD_LINE
 70
   64
 62
    7
  6
CONTINUOUS
  0
ENDTAB
  0
ENDSEC
  0
SECTION
  2
BLOCKS
  0
ENDSEC
  0
SECTION
  2
ENTITIES
  0
LINE
  8
_0-2_
  6
CONTINUOUS
 62
    7
 10
77.715406330329643
 20
194.53417581965465
 11
95.413944106091392
 21
207.39291619725492
  0
LINE
  8
_0-2_
  6
CONTINUOUS
 62
    7
 10
55.838810537140262
 20
194.53417581965465
 11
77.715406330329643
 21
194.53417581965465
  0
LINE
  8
_0-2_
  6
CONTINUOUS
 62
    7
 10
38.140272761378526
 20
207.39291619725495
 11
55.838810537140262
 21
194.53417581965465
  0
LINE
  8
_0-2_
  6
CONTINUOUS
 62
    7
 10
95.413944106091392
 20
207.39291619725492
 11
102.17418398525842
 21
228.1987951807229
  0
LINE
  8
_0-2_
  6
DASHED3
 62
    7
 10
102.17418398525841
 20
228.1987951807229
 11
31.380032882211481
 21
228.1987951807229
  0
LINE
  8
_0-2_
  6
CONTINUOUS
 62
    7
 10
102.17418398525841
 20
228.1987951807229
 11
95.413944106091392
 21
249.00467416419082
  0
LINE
  8
_0-2_
  6
CONTINUOUS
 62
    7
 10
95.413944106091392
 20
249.00467416419082
 11
77.715406330329643
 21
261.86341454179114
  0
LINE
  8
_0-2_
  6
CONTINUOUS
 62
    7
 10
77.715406330329643
 20
261.86341454179114
 11
55.838810537140319
 21
261.86341454179114
  0
LINE
  8
_0-2_
  6
CONTINUOUS
 62
    7
 10
55.838810537140319
 20
261.86341454179114
 11
38.140272761378526
 21
249.00467416419087
  0
LINE
  8
_0-2_
  6
CONTINUOUS
 62
    7
 10
38.140272761378526
 20
249.00467416419087
 11
31.380032882211481
 21
228.1987951807229
  0
LINE
  8
_0-2_
  6
CONTINUOUS
 62
    7
 10
31.380032882211481
 20
228.1987951807229
 11
38.140272761378526
 21
207.39291619725495
  0
LINE
  8
_0-b_
  6
CONTINUOUS
 62
    4
 10
107.40473493975904
 20
236.85833501228996
 11
107.40473493975904
 21
215.75705766208648
  0
LINE
  8
_0-b_
  6
CONTINUOUS
 62
    4
 10
351.86548736753031
 20
163.60321285140563
 11
324.77997340532698
 21
163.60321285140563
  0
TEXT
  8
_0-a_
 62
    3
 10
6.1867469879518069
 20
148.55391566265061
 40
6
 41
1
 50
90
  1
10
  0
LINE
  8
_0-a_
  6
CONTINUOUS
 62
    4
 10
6.6867469879518069
 20
143.4989156626506
 11
6.6867469879518069
 21
133.4989156626506
  0
LINE
  8
_0-1_
  6
CONTINUOUS
 62
    7
 10
349.86545149670849
 20
262.13939767136674
 11
359.86545149670849
 21
262.13939767136674
  0
LINE
  8
_0-1_
  6
CONTINUOUS
 62
    7
 10
257.81725872562413
 20
262.13939767136674
 11
247.81725872562416
 21
277.13939767136674
  0
LINE
  8
_0-1_
  6
CONTINUOUS
 62
    7
 10
27.817258725624157
 20
262.13939767136674
 11
27.817258725624157
 21
26.519397671366733
  0
LINE
  8
_0-1_
  6
CONTINUOUS
 62
    7
 10
257.81725872562413
 20
262.13939767136674
 11
257.81725872562413
 21
26.519397671366733
  0
LINE
  8
_0-1_
  6
CONTINUOUS
 62
    7
 10
227.81725872562416
 20
277.13939767136674
 11
217.81725872562416
 21
262.13939767136674
  0
LINE
  8
_0-1_
  6
CONTINUOUS
 62
    7
 10
217.81725872562416
 20
26.519397671366733
 11
207.81725872562416
 21
11.519397671366733
  0
LINE
  8
_0-1_
  6
CONTINUOUS
 62
    7
 10
187.81725872562416
 20
11.519397671366733
 11
177.81725872562416
 21
26.519397671366733
  0
LINE
  8
_0-1_
  6
CONTINUOUS
 62
    7
 10
177.81725872562416
 20
262.13939767136674
 11
167.81725872562416
 21
277.13939767136674
  0
LINE
  8
_0-1_
  6
CONTINUOUS
 62
    7
 10
147.81725872562416
 20
277.13939767136674
 11
137.81725872562416
 21
262.13939767136674
  0
LINE
  8
_0-1_
  6
CONTINUOUS
 62
    7
 10
137.81725872562416
 20
26.519397671366733
 11
127.81725872562416
 21
11.519397671366733
  0
LINE
  8
_0-1_
  6
CONTINUOUS
 62
    7
 10
107.81725872562416
 20
11.519397671366733
 11
97.817258725624157
 21
26.519397671366733
  0
LINE
  8
_0-1_
  6
CONTINUOUS
 62
    7
 10
97.817258725624157
 20
262.13939767136674
 11
87.817258725624157
 21
277.13939767136674
  0
LINE
  8
_0-1_
  6
CONTINUOUS
 62
    7
 10
67.817258725624157
 20
277.13939767136674
 11
57.817258725624157
 21
262.13939767136674
  0
LINE
  8
_0-1_
  6
CONTINUOUS
 62
    7
 10
57.817258725624157
 20
26.519397671366733
 11
47.817258725624157
 21
11.519397671366733
  0
LINE
  8
_0-1_
  6
CONTINUOUS
 62
    7
 10
37.817258725624157
 20
11.519397671366733
 11
27.817258725624157
 21
26.519397671366733
  0
LINE
  8
_0-1_
  6
CONTINUOUS
 62
    7
 10
67.817258725624157
 20
277.13939767136674
 11
87.817258725624157
 21
277.13939767136674
  0
LINE
  8
_0-1_
  6
CONTINUOUS
 62
    7
 10
147.81725872562416
 20
277.13939767136674
 11
167.81725872562416
 21
277.13939767136674
  0
LINE
  8
_0-1_
  6
CONTINUOUS
 62
    7
 10
227.81725872562416
 20
277.13939767136674
 11
247.81725872562416
 21
277.13939767136674
  0
LINE
  8
_0-1_
  6
CONTINUOUS
 62
    7
 10
37.817258725624157
 20
11.519397671366733
 11
47.817258725624157
 21
11.519397671366733
  0
LINE
  8
_0-1_
  6
CONTINUOUS
 62
    7
 10
107.81725872562416
 20
11.519397671366733
 11
127.81725872562416
 21
11.519397671366733
  0
LINE
  8
_0-1_
  6
CONTINUOUS
 62
    7
 10
187.81725872562416
 20
11.519397671366733
 11
207.81725872562416
 21
11.519397671366733
  0
LINE
  8
_0-1_
  6
CONTINUOUS
 62
    7
 10
27.817258725624157
 20
262.13939767136674
 11
57.817258725624157
 21
262.13939767136674
  0
LINE
  8
_0-1_
  6
CONTINUOUS
 62
    7
 10
97.817258725624157
 20
262.13939767136674
 11
137.81725872562416
 21
262.13939767136674
  0
LINE
  8
_0-1_
  6
CONTINUOUS
 62
    7
 10
177.81725872562416
 20
262.13939767136674
 11
217.81725872562416
 21
262.13939767136674
  0
LINE
  8
_0-1_
  6
CONTINUOUS
 62
    7
 10
57.817258725624157
 20
26.519397671366733
 11
97.817258725624157
 21
26.519397671366733
  0
LINE
  8
_0-1_
  6
CONTINUOUS
 62
    7
 10
137.81725872562416
 20
26.519397671366733
 11
177.81725872562416
 21
26.519397671366733
  0
LINE
  8
_0-1_
  6
CONTINUOUS
 62
    7
 10
217.81725872562416
 20
26.519397671366733
 11
257.81725872562413
 21
26.519397671366733
  0
LINE
  8
_0-1_
  6
DASHED3
 62
    7
 10
57.817258725624157
 20
262.13939767136674
 11
97.817258725624157
 21
262.13939767136674
  0
LINE
  8
_0-1_
  6
DASHED3
 62
    7
 10
137.81725872562416
 20
262.13939767136674
 11
177.81725872562416
 21
262.13939767136674
  0
LINE
  8
_0-1_
  6
DASHED3
 62
    7
 10
217.81725872562416
 20
262.13939767136674
 11
257.81725872562413
 21
262.13939767136674
  0
LINE
  8
_0-1_
  6
DASHED3
 62
    7
 10
27.817258725624157
 20
26.519397671366733
 11
57.817258725624157
 21
26.519397671366733
  0
LINE
  8
_0-1_
  6
DASHED3
 62
    7
 10
97.817258725624157
 20
26.519397671366733
 11
137.81725872562416
 21
26.519397671366733
  0
LINE
  8
_0-1_
  6
DASHED3
 62
    7
 10
177.81725872562416
 20
26.519397671366733
 11
217.81725872562416
 21
26.519397671366733
  0
LINE
  8
_0-9_
  6
CONTINUOUS
 62
    4
 10
27.817258725624157
 20
289.46469887618599
 11
257.81725872562413
 21
289.46469887618599
  0
POINT
  8
_0-9_
 62
    4
 10
27.817258725624157
 20
289.46469887618599
  0
POINT
  8
_0-9_
 62
    4
 10
257.81725872562413
 20
289.46469887618599
  0
LINE
  8
_0-9_
  6
CONTINUOUS
 62
    4
 10
27.817258725624157
 20
289.46469887618599
 11
27.817258725624157
 21
264.41650610510169
  0
LINE
  8
_0-9_
  6
CONTINUOUS
 62
    4
 10
257.81725872562413
 20
289.46469887618599
 11
257.81725872562413
 21
264.41650610510169
  0
TEXT
  8
_0-9_
 62
    3
 10
138.06725872562416
 20
289.96469887618599
 40
6
 41
1
 50
0
  1
230
  0
LINE
  8
_0-9_
  6
CONTINUOUS
 62
    4
 10
27.817258725624157
 20
281.33216875570406
 11
57.817258725624157
 21
281.33216875570406
  0
POINT
  8
_0-9_
 62
    4
 10
27.817258725624157
 20
281.33216875570406
  0
POINT
  8
_0-9_
 62
    4
 10
57.817258725624157
 20
281.33216875570406
  0
LINE
  8
_0-9_
  6
CONTINUOUS
 62
    4
 10
27.817258725624157
 20
281.33216875570406
 11
27.817258725624157
 21
278.72975911714985
  0
LINE
  8
_0-9_
  6
CONTINUOUS
 62
    4
 10
57.817258725624157
 20
281.33216875570406
 11
57.817258725624157
 21
278.72975911714985
  0
TEXT
  8
_0-9_
 62
    3
 10
39.692258725624157
 20
281.83216875570406
 40
6
 41
1
 50
0
  1
30
  0
LINE
  8
_0-9_
  6
CONTINUOUS
 62
    4
 10
57.817258725624157
 20
281.33216875570406
 11
67.817258725624157
 21
281.33216875570406
  0
POINT
  8
_0-9_
 62
    4
 10
67.817258725624157
 20
281.33216875570406
  0
LINE
  8
_0-9_
  6
CONTINUOUS
 62
    4
 10
67.817258725624157
 20
281.33216875570406
 11
67.817258725624157
 21
278.72975911714985
  0
TEXT
  8
_0-9_
 62
    3
 10
59.692258725624157
 20
281.83216875570406
 40
6
 41
1
 50
0
  1
10
  0
LINE
  8
_0-9_
  6
CONTINUOUS
 62
    4
 10
67.817258725624157
 20
281.33216875570406
 11
87.817258725624157
 21
281.33216875570406
  0
POINT
  8
_0-9_
 62
    4
 10
87.817258725624157
 20
281.33216875570406
  0
LINE
  8
_0-9_
  6
CONTINUOUS
 62
    4
 10
87.817258725624157
 20
281.33216875570406
 11
87.817258725624157
 21
278.72975911714985
  0
TEXT
  8
_0-9_
 62
    3
 10
74.692258725624157
 20
281.83216875570406
 40
6
 41
1
 50
0
  1
20
  0
LINE
  8
_0-9_
  6
CONTINUOUS
 62
    4
 10
87.817258725624157
 20
281.33216875570406
 11
97.817258725624157
 21
281.33216875570406
  0
POINT
  8
_0-9_
 62
    4
 10
97.817258725624157
 20
281.33216875570406
  0
LINE
  8
_0-9_
  6
CONTINUOUS
 62
    4
 10
97.817258725624157
 20
281.33216875570406
 11
97.817258725624157
 21
278.72975911714985
  0
TEXT
  8
_0-9_
 62
    3
 10
89.692258725624157
 20
281.83216875570406
 40
6
 41
1
 50
0
  1
10
  0
LINE
  8
_0-9_
  6
CONTINUOUS
 62
    4
 10
97.817258725624157
 20
281.33216875570406
 11
137.81725872562416
 21
281.33216875570406
  0
POINT
  8
_0-9_
 62
    4
 10
137.81725872562416
 20
281.33216875570406
  0
LINE
  8
_0-9_
  6
CONTINUOUS
 62
    4
 10
137.81725872562416
 20
281.33216875570406
 11
137.81725872562416
 21
278.72975911714985
  0
TEXT
  8
_0-9_
 62
    3
 10
114.69225872562416
 20
281.83216875570406
 40
6
 41
1
 50
0
  1
40
  0
LINE
  8
_0-9_
  6
CONTINUOUS
 62
    4
 10
137.81725872562416
 20
281.33216875570406
 11
147.81725872562416
 21
281.33216875570406
  0
POINT
  8
_0-9_
 62
    4
 10
147.81725872562416
 20
281.33216875570406
  0
LINE
  8
_0-9_
  6
CONTINUOUS
 62
    4
 10
147.81725872562416
 20
281.33216875570406
 11
147.81725872562416
 21
278.72975911714985
  0
TEXT
  8
_0-9_
 62
    3
 10
139.69225872562416
 20
281.83216875570406
 40
6
 41
1
 50
0
  1
10
  0
LINE
  8
_0-9_
  6
CONTINUOUS
 62
    4
 10
147.81725872562416
 20
281.33216875570406
 11
167.81725872562416
 21
281.33216875570406
  0
POINT
  8
_0-9_
 62
    4
 10
167.81725872562416
 20
281.33216875570406
  0
LINE
  8
_0-9_
  6
CONTINUOUS
 62
    4
 10
167.81725872562416
 20
281.33216875570406
 11
167.81725872562416
 21
278.72975911714985
  0
TEXT
  8
_0-9_
 62
    3
 10
154.69225872562416
 20
281.83216875570406
 40
6
 41
1
 50
0
  1
20
  0
LINE
  8
_0-9_
  6
CONTINUOUS
 62
    4
 10
167.81725872562416
 20
281.33216875570406
 11
177.81725872562416
 21
281.33216875570406
  0
POINT
  8
_0-9_
 62
    4
 10
177.81725872562416
 20
281.33216875570406
  0
LINE
  8
_0-9_
  6
CONTINUOUS
 62
    4
 10
177.81725872562416
 20
281.33216875570406
 11
177.81725872562416
 21
278.72975911714985
  0
TEXT
  8
_0-9_
 62
    3
 10
169.69225872562416
 20
281.83216875570406
 40
6
 41
1
 50
0
  1
10
  0
LINE
  8
_0-9_
  6
CONTINUOUS
 62
    4
 10
177.81725872562416
 20
281.33216875570406
 11
217.81725872562416
 21
281.33216875570406
  0
POINT
  8
_0-9_
 62
    4
 10
217.81725872562416
 20
281.33216875570406
  0
LINE
  8
_0-9_
  6
CONTINUOUS
 62
    4
 10
217.81725872562416
 20
281.33216875570406
 11
217.81725872562416
 21
278.72975911714985
  0
TEXT
  8
_0-9_
 62
    3
 10
194.69225872562416
 20
281.83216875570406
 40
6
 41
1
 50
0
  1
40
  0
LINE
  8
_0-9_
  6
CONTINUOUS
 62
    4
 10
217.81725872562416
 20
281.33216875570406
 11
227.81725872562416
 21
281.33216875570406
  0
POINT
  8
_0-9_
 62
    4
 10
227.81725872562416
 20
281.33216875570406
  0
LINE
  8
_0-9_
  6
CONTINUOUS
 62
    4
 10
227.81725872562416
 20
281.33216875570406
 11
227.81725872562416
 21
278.72975911714985
  0
TEXT
  8
_0-9_
 62
    3
 10
219.69225872562416
 20
281.83216875570406
 40
6
 41
1
 50
0
  1
10
  0
LINE
  8
_0-9_
  6
CONTINUOUS
 62
    4
 10
227.81725872562416
 20
281.33216875570406
 11
247.81725872562416
 21
281.33216875570406
  0
POINT
  8
_0-9_
 62
    4
 10
247.81725872562416
 20
281.33216875570406
  0
LINE
  8
_0-9_
  6
CONTINUOUS
 62
    4
 10
247.81725872562416
 20
281.33216875570406
 11
247.81725872562416
 21
278.72975911714985
  0
TEXT
  8
_0-9_
 62
    3
 10
234.69225872562416
 20
281.83216875570406
 40
6
 41
1
 50
0
  1
20
  0
LINE
  8
_0-9_
  6
CONTINUOUS
 62
    4
 10
247.81725872562416
 20
281.33216875570406
 11
257.81725872562413
 21
281.33216875570406
  0
POINT
  8
_0-9_
 62
    4
 10
257.81725872562413
 20
281.33216875570406
  0
LINE
  8
_0-9_
  6
CONTINUOUS
 62
    4
 10
257.81725872562413
 20
281.33216875570406
 11
257.81725872562413
 21
278.72975911714985
  0
TEXT
  8
_0-9_
 62
    3
 10
249.69225872562416
 20
281.83216875570406
 40
6
 41
1
 50
0
  1
10
  0
LINE
  8
_0-9_
  6
CONTINUOUS
 62
    4
 10
27.817258725624157
 20
2.0002672365841363
 11
37.817258725624157
 21
2.0002672365841363
  0
POINT
  8
_0-9_
 62
    4
 10
27.817258725624157
 20
2.0002672365841363
  0
POINT
  8
_0-9_
 62
    4
 10
37.817258725624157
 20
2.0002672365841363
  0
LINE
  8
_0-9_
  6
CONTINUOUS
 62
    4
 10
37.817258725624157
 20
2.0002672365841363
 11
37.817258725624157
 21
10.814515534122108
  0
TEXT
  8
_0-9_
 62
    3
 10
29.692258725624157
 20
2.5002672365841363
 40
6
 41
1
 50
0
  1
10
  0
LINE
  8
_0-9_
  6
CONTINUOUS
 62
    4
 10
37.817258725624157
 20
2.0002672365841363
 11
47.817258725624157
 21
2.0002672365841363
  0
POINT
  8
_0-9_
 62
    4
 10
47.817258725624157
 20
2.0002672365841363
  0
LINE
  8
_0-9_
  6
CONTINUOUS
 62
    4
 10
47.817258725624157
 20
2.0002672365841363
 11
47.817258725624157
 21
10.814515534122108
  0
TEXT
  8
_0-9_
 62
    3
 10
39.692258725624157
 20
2.5002672365841363
 40
6
 41
1
 50
0
  1
10
  0
LINE
  8
_0-9_
  6
CONTINUOUS
 62
    4
 10
47.817258725624157
 20
2.0002672365841363
 11
57.817258725624157
 21
2.0002672365841363
  0
POINT
  8
_0-9_
 62
    4
 10
57.817258725624157
 20
2.0002672365841363
  0
LINE
  8
_0-9_
  6
CONTINUOUS
 62
    4
 10
57.817258725624157
 20
2.0002672365841363
 11
57.817258725624157
 21
10.814515534122108
  0
TEXT
  8
_0-9_
 62
    3
 10
49.692258725624157
 20
2.5002672365841363
 40
6
 41
1
 50
0
  1
10
  0
LINE
  8
_0-9_
  6
CONTINUOUS
 62
    4
 10
57.817258725624157
 20
2.0002672365841363
 11
97.817258725624157
 21
2.0002672365841363
  0
POINT
  8
_0-9_
 62
    4
 10
97.817258725624157
 20
2.0002672365841363
  0
LINE
  8
_0-9_
  6
CONTINUOUS
 62
    4
 10
97.817258725624157
 20
2.0002672365841363
 11
97.817258725624157
 21
10.814515534122108
  0
TEXT
  8
_0-9_
 62
    3
 10
74.692258725624157
 20
2.5002672365841363
 40
6
 41
1
 50
0
  1
40
  0
LINE
  8
_0-9_
  6
CONTINUOUS
 62
    4
 10
97.817258725624157
 20
2.0002672365841363
 11
107.81725872562416
 21
2.0002672365841363
  0
POINT
  8
_0-9_
 62
    4
 10
107.81725872562416
 20
2.0002672365841363
  0
LINE
  8
_0-9_
  6
CONTINUOUS
 62
    4
 10
107.81725872562416
 20
2.0002672365841363
 11
107.81725872562416
 21
10.814515534122108
  0
TEXT
  8
_0-9_
 62
    3
 10
99.692258725624157
 20
2.5002672365841363
 40
6
 41
1
 50
0
  1
10
  0
LINE
  8
_0-9_
  6
CONTINUOUS
 62
    4
 10
107.81725872562416
 20
2.0002672365841363
 11
127.81725872562416
 21
2.0002672365841363
  0
POINT
  8
_0-9_
 62
    4
 10
127.81725872562416
 20
2.0002672365841363
  0
LINE
  8
_0-9_
  6
CONTINUOUS
 62
    4
 10
127.81725872562416
 20
2.0002672365841363
 11
127.81725872562416
 21
10.814515534122108
  0
TEXT
  8
_0-9_
 62
    3
 10
114.69225872562416
 20
2.5002672365841363
 40
6
 41
1
 50
0
  1
20
  0
LINE
  8
_0-9_
  6
CONTINUOUS
 62
    4
 10
127.81725872562416
 20
2.0002672365841363
 11
137.81725872562416
 21
2.0002672365841363
  0
POINT
  8
_0-9_
 62
    4
 10
137.81725872562416
 20
2.0002672365841363
  0
LINE
  8
_0-9_
  6
CONTINUOUS
 62
    4
 10
137.81725872562416
 20
2.0002672365841363
 11
137.81725872562416
 21
10.814515534122108
  0
TEXT
  8
_0-9_
 62
    3
 10
129.69225872562416
 20
2.5002672365841363
 40
6
 41
1
 50
0
  1
10
  0
LINE
  8
_0-9_
  6
CONTINUOUS
 62
    4
 10
137.81725872562416
 20
2.0002672365841363
 11
177.81725872562416
 21
2.0002672365841363
  0
POINT
  8
_0-9_
 62
    4
 10
177.81725872562416
 20
2.0002672365841363
  0
LINE
  8
_0-9_
  6
CONTINUOUS
 62
    4
 10
177.81725872562416
 20
2.0002672365841363
 11
177.81725872562416
 21
10.814515534122108
  0
TEXT
  8
_0-9_
 62
    3
 10
154.69225872562416
 20
2.5002672365841363
 40
6
 41
1
 50
0
  1
40
  0
LINE
  8
_0-9_
  6
CONTINUOUS
 62
    4
 10
177.81725872562416
 20
2.0002672365841363
 11
187.81725872562416
 21
2.0002672365841363
  0
POINT
  8
_0-9_
 62
    4
 10
187.81725872562416
 20
2.0002672365841363
  0
LINE
  8
_0-9_
  6
CONTINUOUS
 62
    4
 10
187.81725872562416
 20
2.0002672365841363
 11
187.81725872562416
 21
10.814515534122108
  0
TEXT
  8
_0-9_
 62
    3
 10
179.69225872562416
 20
2.5002672365841363
 40
6
 41
1
 50
0
  1
10
  0
LINE
  8
_0-9_
  6
CONTINUOUS
 62
    4
 10
187.81725872562416
 20
2.0002672365841363
 11
207.81725872562416
 21
2.0002672365841363
  0
POINT
  8
_0-9_
 62
    4
 10
207.81725872562416
 20
2.0002672365841363
  0
LINE
  8
_0-9_
  6
CONTINUOUS
 62
    4
 10
207.81725872562416
 20
2.0002672365841363
 11
207.81725872562416
 21
10.814515534122108
  0
TEXT
  8
_0-9_
 62
    3
 10
194.69225872562416
 20
2.5002672365841363
 40
6
 41
1
 50
0
  1
20
  0
LINE
  8
_0-9_
  6
CONTINUOUS
 62
    4
 10
207.81725872562416
 20
2.0002672365841363
 11
217.81725872562416
 21
2.0002672365841363
  0
POINT
  8
_0-9_
 62
    4
 10
217.81725872562416
 20
2.0002672365841363
  0
LINE
  8
_0-9_
  6
CONTINUOUS
 62
    4
 10
217.81725872562416
 20
2.0002672365841363
 11
217.81725872562416
 21
10.814515534122108
  0
TEXT
  8
_0-9_
 62
    3
 10
209.69225872562416
 20
2.5002672365841363
 40
6
 41
1
 50
0
  1
10
  0
LINE
  8
_0-9_
  6
CONTINUOUS
 62
    4
 10
217.81725872562416
 20
2.0002672365841363
 11
257.81725872562413
 21
2.0002672365841363
  0
POINT
  8
_0-9_
 62
    4
 10
257.81725872562413
 20
2.0002672365841363
  0
TEXT
  8
_0-9_
 62
    3
 10
234.69225872562416
 20
2.5002672365841363
 40
6
 41
1
 50
0
  1
40
  0
LINE
  8
_0-9_
  6
CONTINUOUS
 62
    4
 10
27.817258725624157
 20
2.0002672365841363
 11
27.817258725624157
 21
25.218287142293931
  0
LINE
  8
_0-9_
  6
CONTINUOUS
 62
    4
 10
257.81725872562413
 20
2.0002672365841363
 11
257.81725872562413
 21
25.218287142293931
  0
LINE
  8
_0-9_
  6
CONTINUOUS
 62
    4
 10
349.86545149670849
 20
289.46469887618599
 11
359.86545149670849
 21
289.46469887618599
  0
POINT
  8
_0-9_
 62
    4
 10
349.86545149670849
 20
289.46469887618599
  0
POINT
  8
_0-9_
 62
    4
 10
359.86545149670849
 20
289.46469887618599
  0
LINE
  8
_0-9_
  6
CONTINUOUS
 62
    4
 10
349.86545149670849
 20
289.46469887618599
 11
349.86545149670849
 21
264.41650610510169
  0
LINE
  8
_0-9_
  6
CONTINUOUS
 62
    4
 10
359.86545149670849
 20
289.46469887618599
 11
359.86545149670849
 21
264.41650610510169
  0
TEXT
  8
_0-9_
 62
    3
 10
351.74045149670849
 20
289.96469887618599
 40
6
 41
1
 50
0
  1
10
  0
LINE
  8
_0-9_
  6
CONTINUOUS
 62
    4
 10
27.817258725624157
 20
186.66951815329443
 11
87.817258725624157
 21
186.66951815329443
  0
POINT
  8
_0-9_
 62
    4
 10
27.817258725624157
 20
186.66951815329443
  0
POINT
  8
_0-9_
 62
    4
 10
87.817258725624157
 20
186.66951815329443
  0
TEXT
  8
_0-9_
 62
    3
 10
54.692258725624157
 20
187.16951815329443
 40
6
 41
1
 50
0
  1
60
  0
LINE
  8
_0-9_
  6
CONTINUOUS
 62
    4
 10
87.817258725624157
 20
186.66951815329443
 11
97.817258725624157
 21
186.66951815329443
  0
POINT
  8
_0-9_
 62
    4
 10
97.817258725624157
 20
186.66951815329443
  0
TEXT
  8
_0-9_
 62
    3
 10
89.692258725624157
 20
187.16951815329443
 40
6
 41
1
 50
0
  1
10
  0
LINE
  8
_0-9_
  6
CONTINUOUS
 62
    4
 10
97.817258725624157
 20
186.66951815329443
 11
247.81725872562416
 21
186.66951815329443
  0
POINT
  8
_0-9_
 62
    4
 10
247.81725872562416
 20
186.66951815329443
  0
TEXT
  8
_0-9_
 62
    3
 10
168.06725872562416
 20
187.16951815329443
 40
6
 41
1
 50
0
  1
150
  0
LINE
  8
_0-9_
  6
CONTINUOUS
 62
    4
 10
247.81725872562416
 20
186.66951815329443
 11
257.81725872562413
 21
186.66951815329443
  0
POINT
  8
_0-9_
 62
    4
 10
257.81725872562413
 20
186.66951815329443
  0
TEXT
  8
_0-9_
 62
    3
 10
249.69225872562416
 20
187.16951815329443
 40
6
 41
1
 50
0
  1
10
  0
LINE
  8
_0-9_
  6
CONTINUOUS
 62
    4
 10
272.76906595453983
 20
277.13939767136674
 11
272.76906595453983
 21
262.13939767136674
  0
POINT
  8
_0-9_
 62
    4
 10
272.76906595453983
 20
277.13939767136674
  0
POINT
  8
_0-9_
 62
    4
 10
272.76906595453983
 20
262.13939767136674
  0
LINE
  8
_0-9_
  6
CONTINUOUS
 62
    4
 10
272.76906595453983
 20
262.13939767136674
 11
259.75701776176874
 21
262.13939767136674
  0
TEXT
  8
_0-9_
 62
    3
 10
272.26906595453983
 20
266.51439767136674
 40
6
 41
1
 50
90
  1
15
  0
LINE
  8
_0-9_
  6
CONTINUOUS
 62
    4
 10
272.76906595453983
 20
262.13939767136674
 11
272.76906595453977
 21
26.519397671366718
  0
POINT
  8
_0-9_
 62
    4
 10
272.76906595453977
 20
26.519397671366718
  0
LINE
  8
_0-9_
  6
CONTINUOUS
 62
    4
 10
272.76906595453977
 20
26.519397671366718
 11
259.75701776176868
 21
26.519397671366718
  0
TEXT
  8
_0-9_
 62
    3
 10
272.26906595453977
 20
134.70439767136673
 40
6
 41
1
 50
90
  1
235.62
  0
LINE
  8
_0-9_
  6
CONTINUOUS
 62
    4
 10
272.76906595453977
 20
26.519397671366718
 11
272.76906595453977
 21
11.519397671366704
  0
POINT
  8
_0-9_
 62
    4
 10
272.76906595453977
 20
11.519397671366704
  0
TEXT
  8
_0-9_
 62
    3
 10
272.26906595453977
 20
15.894397671366704
 40
6
 41
1
 50
90
  1
15
  0
LINE
  8
_0-9_
  6
CONTINUOUS
 62
    4
 10
272.76906595453977
 20
11.519397671366704
 11
210.6365358340579
 21
11.519397671366704
  0
LINE
  8
_0-9_
  6
CONTINUOUS
 62
    4
 10
272.76906595453983
 20
277.13939767136674
 11
249.34737920755185
 21
277.13939767136674
  0
LINE
  8
_0-1_
  6
CONTINUOUS
 62
    7
 10
374.75701776176874
 20
262.13939767136674
 11
384.75701776176874
 21
262.13939767136674
  0
LINE
  8
_0-9_
  6
CONTINUOUS
 62
    4
 10
374.75701776176874
 20
289.46469887618599
 11
384.75701776176874
 21
289.46469887618599
  0
POINT
  8
_0-9_
 62
    4
 10
374.75701776176874
 20
289.46469887618599
  0
POINT
  8
_0-9_
 62
    4
 10
384.75701776176874
 20
289.46469887618599
  0
LINE
  8
_0-9_
  6
CONTINUOUS
 62
    4
 10
374.75701776176874
 20
289.46469887618599
 11
374.75701776176874
 21
264.41650610510169
  0
LINE
  8
_0-9_
  6
CONTINUOUS
 62
    4
 10
384.75701776176874
 20
289.46469887618599
 11
384.75701776176874
 21
264.41650610510169
  0
TEXT
  8
_0-9_
 62
    3
 10
376.63201776176874
 20
289.96469887618599
 40
6
 41
1
 50
0
  1
10
  0
LINE
  8
_0-2_
  6
CONTINUOUS
 62
    7
 10
33.000000000000028
 20
156.67891566265061
 11
18.000000000000028
 21
146.67891566265061
  0
LINE
  8
_0-2_
  6
CONTINUOUS
 62
    7
 10
18.000000000000028
 20
143.4989156626506
 11
33.000000000000028
 21
133.4989156626506
  0
LINE
  8
_0-2_
  6
CONTINUOUS
 62
    7
 10
33.000000000000028
 20
133.4989156626506
 11
18.000000000000028
 21
123.4989156626506
  0
LINE
  8
_0-2_
  6
CONTINUOUS
 62
    7
 10
18.000000000000028
 20
120.31891566265062
 11
33.000000000000028
 21
110.31891566265062
  0
LINE
  8
_0-2_
  6
CONTINUOUS
 62
    7
 10
33.000000000000028
 20
110.31891566265062
 11
18.000000000000028
 21
100.31891566265062
  0
LINE
  8
_0-2_
  6
CONTINUOUS
 62
    7
 10
18.000000000000028
 20
97.138915662650618
 11
33.000000000000028
 21
87.138915662650618
  0
LINE
  8
_0-2_
  6
CONTINUOUS
 62
    7
 10
33.000000000000028
 20
87.138915662650618
 11
18.000000000000028
 21
77.138915662650618
  0
LINE
  8
_0-2_
  6
CONTINUOUS
 62
    7
 10
18.000000000000028
 20
73.958915662650611
 11
33.000000000000028
 21
63.958915662650611
  0
LINE
  8
_0-2_
  6
CONTINUOUS
 62
    7
 10
33.000000000000028
 20
63.958915662650611
 11
18.000000000000028
 21
53.958915662650611
  0
LINE
  8
_0-2_
  6
CONTINUOUS
 62
    7
 10
18.000000000000028
 20
50.778915662650604
 11
33.000000000000028
 21
40.778915662650604
  0
LINE
  8
_0-2_
  6
CONTINUOUS
 62
    7
 10
387
 20
156.67891566265061
 11
402
 21
146.67891566265061
  0
LINE
  8
_0-2_
  6
CONTINUOUS
 62
    7
 10
402
 20
143.4989156626506
 11
387
 21
133.4989156626506
  0
LINE
  8
_0-2_
  6
CONTINUOUS
 62
    7
 10
387
 20
133.4989156626506
 11
402
 21
123.4989156626506
  0
LINE
  8
_0-2_
  6
CONTINUOUS
 62
    7
 10
402
 20
120.31891566265062
 11
387
 21
110.31891566265062
  0
LINE
  8
_0-2_
  6
CONTINUOUS
 62
    7
 10
387
 20
110.31891566265062
 11
402
 21
100.31891566265062
  0
LINE
  8
_0-2_
  6
CONTINUOUS
 62
    7
 10
402
 20
97.138915662650618
 11
387
 21
87.138915662650618
  0
LINE
  8
_0-2_
  6
CONTINUOUS
 62
    7
 10
387
 20
87.138915662650618
 11
402
 21
77.138915662650618
  0
LINE
  8
_0-2_
  6
CONTINUOUS
 62
    7
 10
402
 20
73.958915662650611
 11
387
 21
63.958915662650611
  0
LINE
  8
_0-2_
  6
CONTINUOUS
 62
    7
 10
387
 20
63.958915662650611
 11
402
 21
53.958915662650611
  0
LINE
  8
_0-2_
  6
CONTINUOUS
 62
    7
 10
402
 20
50.778915662650604
 11
387
 21
40.778915662650604
  0
LINE
  8
_0-2_
  6
CONTINUOUS
 62
    7
 10
33.000000000000028
 20
166.67891566265061
 11
387
 21
166.67891566265061
  0
LINE
  8
_0-2_
  6
CONTINUOUS
 62
    7
 10
33.000000000000028
 20
30.778915662650604
 11
387
 21
30.778915662650604
  0
LINE
  8
_0-2_
  6
CONTINUOUS
 62
    7
 10
18.000000000000028
 20
146.67891566265061
 11
18.000000000000028
 21
143.4989156626506
  0
LINE
  8
_0-2_
  6
CONTINUOUS
 62
    7
 10
18.000000000000028
 20
123.4989156626506
 11
18.000000000000028
 21
120.31891566265062
  0
LINE
  8
_0-2_
  6
CONTINUOUS
 62
    7
 10
18.000000000000028
 20
100.31891566265062
 11
18.000000000000028
 21
97.138915662650618
  0
LINE
  8
_0-2_
  6
CONTINUOUS
 62
    7
 10
18.000000000000028
 20
77.138915662650618
 11
18.000000000000028
 21
73.958915662650611
  0
LINE
  8
_0-2_
  6
CONTINUOUS
 62
    7
 10
18.000000000000028
 20
53.958915662650611
 11
18.000000000000028
 21
50.778915662650604
  0
LINE
  8
_0-2_
  6
CONTINUOUS
 62
    7
 10
402
 20
146.67891566265061
 11
402
 21
143.4989156626506
  0
LINE
  8
_0-2_
  6
CONTINUOUS
 62
    7
 10
402
 20
123.4989156626506
 11
402
 21
120.31891566265062
  0
LINE
  8
_0-2_
  6
CONTINUOUS
 62
    7
 10
402
 20
100.31891566265062
 11
402
 21
97.138915662650618
  0
LINE
  8
_0-2_
  6
CONTINUOUS
 62
    7
 10
402
 20
77.138915662650618
 11
402
 21
73.958915662650611
  0
LINE
  8
_0-2_
  6
CONTINUOUS
 62
    7
 10
402
 20
53.958915662650611
 11
402
 21
50.778915662650604
  0
LINE
  8
_0-2_
  6
DASHED3
 62
    7
 10
33.000000000000028
 20
156.67891566265061
 11
387
 21
156.67891566265061
  0
LINE
  8
_0-2_
  6
DASHED3
 62
    7
 10
33.000000000000028
 20
133.4989156626506
 11
387
 21
133.4989156626506
  0
LINE
  8
_0-2_
  6
DASHED3
 62
    7
 10
33.000000000000028
 20
110.31891566265062
 11
387
 21
110.31891566265062
  0
LINE
  8
_0-2_
  6
DASHED3
 62
    7
 10
33.000000000000028
 20
87.138915662650618
 11
387
 21
87.138915662650618
  0
LINE
  8
_0-2_
  6
DASHED3
 62
    7
 10
33.000000000000028
 20
63.958915662650611
 11
387
 21
63.958915662650611
  0
LINE
  8
_0-2_
  6
DASHED3
 62
    7
 10
33.000000000000028
 20
40.778915662650604
 11
387
 21
40.778915662650604
  0
LINE
  8
_0-2_
  6
DASHED3
 62
    7
 10
33.000000000000028
 20
156.67891566265061
 11
33.000000000000028
 21
40.778915662650604
  0
LINE
  8
_0-2_
  6
DASHED3
 62
    7
 10
387
 20
156.67891566265061
 11
387
 21
40.778915662650604
  0
LINE
  8
_0-2_
  6
CONTINUOUS
 62
    7
 10
33.000000000000028
 20
166.67891566265061
 11
33.000000000000028
 21
156.67891566265061
  0
LINE
  8
_0-2_
  6
CONTINUOUS
 62
    7
 10
387
 20
166.67891566265061
 11
387
 21
156.67891566265061
  0
LINE
  8
_0-2_
  6
CONTINUOUS
 62
    7
 10
387
 20
30.778915662650604
 11
387
 21
40.778915662650604
  0
LINE
  8
_0-2_
  6
CONTINUOUS
 62
    7
 10
33.000000000000028
 20
30.778915662650604
 11
33.000000000000028
 21
40.778915662650604
  0
LINE
  8
_0-a_
  6
CONTINUOUS
 62
    4
 10
33.000000000000028
 20
172.89759036144579
 11
387
 21
172.89759036144579
  0
POINT
  8
_0-a_
 62
    4
 10
33.000000000000028
 20
172.89759036144579
  0
POINT
  8
_0-a_
 62
    4
 10
387
 20
172.89759036144579
  0
LINE
  8
_0-a_
  6
CONTINUOUS
 62
    4
 10
33.000000000000028
 20
172.89759036144579
 11
33.000000000000028
 21
166.7168674698795
  0
LINE
  8
_0-a_
  6
CONTINUOUS
 62
    4
 10
387
 20
172.89759036144579
 11
387
 21
166.7168674698795
  0
TEXT
  8
_0-a_
 62
    3
 10
205.25000000000003
 20
173.39759036144579
 40
6
 41
1
 50
0
  1
354
  0
LINE
  8
_0-a_
  6
CONTINUOUS
 62
    4
 10
387
 20
172.89759036144579
 11
402
 21
172.89759036144579
  0
POINT
  8
_0-a_
 62
    4
 10
402
 20
172.89759036144579
  0
TEXT
  8
_0-a_
 62
    3
 10
391.375
 20
173.39759036144579
 40
6
 41
1
 50
0
  1
15
  0
LINE
  8
_0-a_
  6
CONTINUOUS
 62
    4
 10
33.000000000000028
 20
172.89759036144579
 11
18.000000000000028
 21
172.89759036144579
  0
POINT
  8
_0-a_
 62
    4
 10
33.000000000000028
 20
172.89759036144579
  0
POINT
  8
_0-a_
 62
    4
 10
18.000000000000028
 20
172.89759036144579
  0
LINE
  8
_0-a_
  6
CONTINUOUS
 62
    4
 10
33.000000000000028
 20
172.89759036144579
 11
33.000000000000028
 21
166.7168674698795
  0
TEXT
  8
_0-a_
 62
    3
 10
22.375000000000028
 20
173.39759036144579
 40
6
 41
1
 50
0
  1
15
  0
LINE
  8
_0-a_
  6
CONTINUOUS
 62
    4
 10
18.000000000000028
 20
172.89759036144579
 11
18.000000000000028
 21
149.15060240963857
  0
LINE
  8
_0-a_
  6
CONTINUOUS
 62
    4
 10
402
 20
172.89759036144579
 11
402
 21
149.15060240963857
  0
POINT
  8
_0-a_
 62
    4
 10
6.6867469879518069
 20
156.67891566265061
  0
LINE
  8
_0-a_
  6
CONTINUOUS
 62
    4
 10
6.6867469879518069
 20
156.67891566265061
 11
6.6867469879518069
 21
146.67891566265061
  0
POINT
  8
_0-a_
 62
    4
 10
6.6867469879518069
 20
146.67891566265061
  0
LINE
  8
_0-a_
  6
CONTINUOUS
 62
    4
 10
6.6867469879518069
 20
146.67891566265061
 11
17.09638554216869
 21
146.67891566265061
  0
LINE
  8
_0-a_
  6
CONTINUOUS
 62
    4
 10
6.6867469879518069
 20
143.4989156626506
 11
17.09638554216869
 21
143.4989156626506
  0
POINT
  8
_0-a_
 62
    4
 10
6.6867469879518069
 20
133.4989156626506
  0
TEXT
  8
_0-a_
 62
    3
 10
6.1867469879518069
 20
135.3739156626506
 40
6
 41
1
 50
90
  1
10
  0
LINE
  8
_0-a_
  6
CONTINUOUS
 62
    4
 10
6.6867469879518069
 20
133.4989156626506
 11
6.6867469879518069
 21
123.4989156626506
  0
POINT
  8
_0-a_
 62
    4
 10
6.6867469879518069
 20
123.4989156626506
  0
LINE
  8
_0-a_
  6
CONTINUOUS
 62
    4
 10
6.6867469879518069
 20
123.4989156626506
 11
17.09638554216869
 21
123.4989156626506
  0
TEXT
  8
_0-a_
 62
    3
 10
6.1867469879518069
 20
125.3739156626506
 40
6
 41
1
 50
90
  1
10
  0
POINT
  8
_0-a_
 62
    4
 10
6.6867469879518069
 20
120.31891566265062
  0
LINE
  8
_0-a_
  6
CONTINUOUS
 62
    4
 10
6.6867469879518069
 20
120.31891566265062
 11
17.09638554216869
 21
120.31891566265062
  0
LINE
  8
_0-a_
  6
CONTINUOUS
 62
    4
 10
6.6867469879518069
 20
120.31891566265062
 11
6.6867469879518069
 21
110.31891566265062
  0
POINT
  8
_0-a_
 62
    4
 10
6.6867469879518069
 20
110.31891566265062
  0
TEXT
  8
_0-a_
 62
    3
 10
6.1867469879518069
 20
112.19391566265062
 40
6
 41
1
 50
90
  1
10
  0
LINE
  8
_0-a_
  6
CONTINUOUS
 62
    4
 10
6.6867469879518069
 20
110.31891566265062
 11
6.6867469879518069
 21
100.31891566265062
  0
POINT
  8
_0-a_
 62
    4
 10
6.6867469879518069
 20
100.31891566265062
  0
LINE
  8
_0-a_
  6
CONTINUOUS
 62
    4
 10
6.6867469879518069
 20
100.31891566265062
 11
17.09638554216869
 21
100.31891566265062
  0
TEXT
  8
_0-a_
 62
    3
 10
6.1867469879518069
 20
102.19391566265062
 40
6
 41
1
 50
90
  1
10
  0
POINT
  8
_0-a_
 62
    4
 10
6.6867469879518069
 20
97.138915662650618
  0
LINE
  8
_0-a_
  6
CONTINUOUS
 62
    4
 10
6.6867469879518069
 20
97.138915662650618
 11
17.09638554216869
 21
97.138915662650618
  0
LINE
  8
_0-a_
  6
CONTINUOUS
 62
    4
 10
6.6867469879518069
 20
97.138915662650618
 11
6.6867469879518069
 21
87.138915662650618
  0
POINT
  8
_0-a_
 62
    4
 10
6.6867469879518069
 20
87.138915662650618
  0
TEXT
  8
_0-a_
 62
    3
 10
6.1867469879518069
 20
89.013915662650618
 40
6
 41
1
 50
90
  1
10
  0
LINE
  8
_0-a_
  6
CONTINUOUS
 62
    4
 10
6.6867469879518069
 20
87.138915662650618
 11
6.6867469879518069
 21
77.138915662650618
  0
POINT
  8
_0-a_
 62
    4
 10
6.6867469879518069
 20
77.138915662650618
  0
LINE
  8
_0-a_
  6
CONTINUOUS
 62
    4
 10
6.6867469879518069
 20
77.138915662650618
 11
17.09638554216869
 21
77.138915662650618
  0
TEXT
  8
_0-a_
 62
    3
 10
6.1867469879518069
 20
79.013915662650618
 40
6
 41
1
 50
90
  1
10
  0
POINT
  8
_0-a_
 62
    4
 10
6.6867469879518069
 20
73.958915662650611
  0
LINE
  8
_0-a_
  6
CONTINUOUS
 62
    4
 10
6.6867469879518069
 20
73.958915662650611
 11
17.09638554216869
 21
73.958915662650611
  0
LINE
  8
_0-a_
  6
CONTINUOUS
 62
    4
 10
6.6867469879518069
 20
73.958915662650611
 11
6.6867469879518069
 21
63.958915662650611
  0
POINT
  8
_0-a_
 62
    4
 10
6.6867469879518069
 20
63.958915662650611
  0
TEXT
  8
_0-a_
 62
    3
 10
6.1867469879518069
 20
65.833915662650611
 40
6
 41
1
 50
90
  1
10
  0
LINE
  8
_0-a_
  6
CONTINUOUS
 62
    4
 10
6.6867469879518069
 20
63.958915662650611
 11
6.6867469879518069
 21
53.958915662650611
  0
POINT
  8
_0-a_
 62
    4
 10
6.6867469879518069
 20
53.958915662650611
  0
LINE
  8
_0-a_
  6
CONTINUOUS
 62
    4
 10
6.6867469879518069
 20
53.958915662650611
 11
17.09638554216869
 21
53.958915662650611
  0
TEXT
  8
_0-a_
 62
    3
 10
6.1867469879518069
 20
55.833915662650611
 40
6
 41
1
 50
90
  1
10
  0
POINT
  8
_0-a_
 62
    4
 10
6.6867469879518069
 20
50.778915662650604
  0
LINE
  8
_0-a_
  6
CONTINUOUS
 62
    4
 10
6.6867469879518069
 20
50.778915662650604
 11
17.09638554216869
 21
50.778915662650604
  0
LINE
  8
_0-a_
  6
CONTINUOUS
 62
    4
 10
6.6867469879518069
 20
50.778915662650604
 11
6.6867469879518069
 21
40.778915662650604
  0
POINT
  8
_0-a_
 62
    4
 10
6.6867469879518069
 20
40.778915662650604
  0
TEXT
  8
_0-a_
 62
    3
 10
6.1867469879518069
 20
42.653915662650604
 40
6
 41
1
 50
90
  1
10
  0
LINE
  8
_0-a_
  6
CONTINUOUS
 62
    4
 10
6.6867469879518069
 20
40.778915662650604
 11
31.941737950464983
 21
40.778915662650604
  0
LINE
  8
_0-a_
  6
CONTINUOUS
 62
    4
 10
6.6867469879518069
 20
63.958915662650611
 11
31.941737950464983
 21
63.958915662650611
  0
LINE
  8
_0-a_
  6
CONTINUOUS
 62
    4
 10
6.6867469879518069
 20
87.138915662650618
 11
31.941737950464983
 21
87.138915662650618
  0
LINE
  8
_0-a_
  6
CONTINUOUS
 62
    4
 10
6.6867469879518069
 20
110.31891566265062
 11
31.941737950464983
 21
110.31891566265062
  0
LINE
  8
_0-a_
  6
CONTINUOUS
 62
    4
 10
6.6867469879518069
 20
133.4989156626506
 11
31.941737950464983
 21
133.4989156626506
  0
LINE
  8
_0-a_
  6
CONTINUOUS
 62
    4
 10
6.6867469879518069
 20
156.67891566265061
 11
31.941737950464983
 21
156.67891566265061
  0
LINE
  8
_0-a_
  6
CONTINUOUS
 62
    4
 10
61.01204819277109
 20
156.67891566265061
 11
61.01204819277109
 21
133.4989156626506
  0
POINT
  8
_0-a_
 62
    4
 10
61.01204819277109
 20
156.67891566265061
  0
POINT
  8
_0-a_
 62
    4
 10
61.01204819277109
 20
133.4989156626506
  0
TEXT
  8
_0-a_
 62
    3
 10
60.51204819277109
 20
137.08891566265061
 40
6
 41
1
 50
90
  1
23.18
  0
LINE
  8
_0-a_
  6
CONTINUOUS
 62
    4
 10
61.01204819277109
 20
133.4989156626506
 11
61.01204819277109
 21
110.31891566265062
  0
POINT
  8
_0-a_
 62
    4
 10
61.01204819277109
 20
110.31891566265062
  0
TEXT
  8
_0-a_
 62
    3
 10
60.51204819277109
 20
113.90891566265061
 40
6
 41
1
 50
90
  1
23.18
  0
LINE
  8
_0-a_
  6
CONTINUOUS
 62
    4
 10
61.01204819277109
 20
110.31891566265062
 11
61.01204819277109
 21
87.138915662650618
  0
POINT
  8
_0-a_
 62
    4
 10
61.01204819277109
 20
87.138915662650618
  0
TEXT
  8
_0-a_
 62
    3
 10
60.51204819277109
 20
90.728915662650621
 40
6
 41
1
 50
90
  1
23.18
  0
LINE
  8
_0-a_
  6
CONTINUOUS
 62
    4
 10
61.01204819277109
 20
87.138915662650618
 11
61.01204819277109
 21
63.958915662650611
  0
POINT
  8
_0-a_
 62
    4
 10
61.01204819277109
 20
63.958915662650611
  0
TEXT
  8
_0-a_
 62
    3
 10
60.51204819277109
 20
67.548915662650614
 40
6
 41
1
 50
90
  1
23.18
  0
LINE
  8
_0-a_
  6
CONTINUOUS
 62
    4
 10
61.01204819277109
 20
63.958915662650611
 11
61.01204819277109
 21
40.778915662650604
  0
POINT
  8
_0-a_
 62
    4
 10
61.01204819277109
 20
40.778915662650604
  0
TEXT
  8
_0-a_
 62
    3
 10
60.51204819277109
 20
44.368915662650608
 40
6
 41
1
 50
90
  1
23.18
  0
LINE
  8
_0-a_
  6
CONTINUOUS
 62
    4
 10
-16.032317660565582
 20
156.67891566265061
 11
-16.032317660565582
 21
40.778915662650604
  0
POINT
  8
_0-a_
 62
    4
 10
-16.032317660565582
 20
156.67891566265061
  0
POINT
  8
_0-a_
 62
    4
 10
-16.032317660565582
 20
40.778915662650604
  0
LINE
  8
_0-a_
  6
CONTINUOUS
 62
    4
 10
-16.032317660565582
 20
156.67891566265061
 11
31.941737950464983
 21
156.67891566265061
  0
LINE
  8
_0-a_
  6
CONTINUOUS
 62
    4
 10
-16.032317660565582
 20
40.778915662650604
 11
31.941737950464983
 21
40.778915662650604
  0
TEXT
  8
_0-a_
 62
    3
 10
-16.532317660565582
 20
90.728915662650621
 40
6
 41
1
 50
90
  1
115.9
  0
LINE
  8
_0-a_
  6
CONTINUOUS
 62
    4
 10
-16.032317660565582
 20
40.778915662650604
 11
-16.032317660565582
 21
30.778915662650604
  0
POINT
  8
_0-a_
 62
    4
 10
-16.032317660565582
 20
40.778915662650604
  0
POINT
  8
_0-a_
 62
    4
 10
-16.032317660565582
 20
30.778915662650604
  0
LINE
  8
_0-a_
  6
CONTINUOUS
 62
    4
 10
-16.032317660565582
 20
40.778915662650604
 11
31.941737950464983
 21
40.778915662650604
  0
LINE
  8
_0-a_
  6
CONTINUOUS
 62
    4
 10
-16.032317660565582
 20
30.778915662650604
 11
31.941737950464983
 21
30.778915662650604
  0
TEXT
  8
_0-a_
 62
    3
 10
-16.532317660565582
 20
32.653915662650604
 40
6
 41
1
 50
90
  1
10
  0
LINE
  8
_0-a_
  6
CONTINUOUS
 62
    4
 10
-16.032317660565582
 20
156.67891566265061
 11
-16.032317660565582
 21
166.67891566265061
  0
POINT
  8
_0-a_
 62
    4
 10
-16.032317660565582
 20
156.67891566265061
  0
POINT
  8
_0-a_
 62
    4
 10
-16.032317660565582
 20
166.67891566265061
  0
LINE
  8
_0-a_
  6
CONTINUOUS
 62
    4
 10
-16.032317660565582
 20
156.67891566265061
 11
31.941737950464983
 21
156.67891566265061
  0
LINE
  8
_0-a_
  6
CONTINUOUS
 62
    4
 10
-16.032317660565582
 20
166.67891566265061
 11
31.941737950464983
 21
166.67891566265061
  0
TEXT
  8
_0-a_
 62
    3
 10
-16.532317660565582
 20
158.55391566265061
 40
6
 41
1
 50
90
  1
10
  0
LINE
  8
_0-a_
  6
CONTINUOUS
 62
    4
 10
416.24096385542168
 20
156.67891566265061
 11
416.24096385542168
 21
133.4989156626506
  0
POINT
  8
_0-a_
 62
    4
 10
416.24096385542168
 20
156.67891566265061
  0
POINT
  8
_0-a_
 62
    4
 10
416.24096385542168
 20
133.4989156626506
  0
LINE
  8
_0-a_
  6
CONTINUOUS
 62
    4
 10
416.24096385542168
 20
156.67891566265061
 11
388.59036144578312
 21
156.67891566265061
  0
LINE
  8
_0-a_
  6
CONTINUOUS
 62
    4
 10
416.24096385542168
 20
133.4989156626506
 11
388.59036144578312
 21
133.4989156626506
  0
TEXT
  8
_0-a_
 62
    3
 10
415.74096385542168
 20
137.08891566265061
 40
6
 41
1
 50
90
  1
23.18
  0
LINE
  8
_0-a_
  6
CONTINUOUS
 62
    4
 10
416.24096385542168
 20
133.4989156626506
 11
416.24096385542168
 21
110.31891566265062
  0
POINT
  8
_0-a_
 62
    4
 10
416.24096385542168
 20
110.31891566265062
  0
LINE
  8
_0-a_
  6
CONTINUOUS
 62
    4
 10
416.24096385542168
 20
110.31891566265062
 11
388.59036144578312
 21
110.31891566265062
  0
TEXT
  8
_0-a_
 62
    3
 10
415.74096385542168
 20
113.90891566265063
 40
6
 41
1
 50
90
  1
23.18
  0
LINE
  8
_0-a_
  6
CONTINUOUS
 62
    4
 10
416.24096385542168
 20
110.31891566265062
 11
416.24096385542168
 21
87.138915662650618
  0
POINT
  8
_0-a_
 62
    4
 10
416.24096385542168
 20
87.138915662650618
  0
LINE
  8
_0-a_
  6
CONTINUOUS
 62
    4
 10
416.24096385542168
 20
87.138915662650618
 11
388.59036144578312
 21
87.138915662650618
  0
TEXT
  8
_0-a_
 62
    3
 10
415.74096385542168
 20
90.728915662650621
 40
6
 41
1
 50
90
  1
23.18
  0
LINE
  8
_0-a_
  6
CONTINUOUS
 62
    4
 10
416.24096385542168
 20
87.138915662650618
 11
416.24096385542168
 21
63.958915662650611
  0
POINT
  8
_0-a_
 62
    4
 10
416.24096385542168
 20
63.958915662650611
  0
LINE
  8
_0-a_
  6
CONTINUOUS
 62
    4
 10
416.24096385542168
 20
63.958915662650611
 11
388.59036144578312
 21
63.958915662650611
  0
TEXT
  8
_0-a_
 62
    3
 10
415.74096385542168
 20
67.548915662650614
 40
6
 41
1
 50
90
  1
23.18
  0
LINE
  8
_0-a_
  6
CONTINUOUS
 62
    4
 10
416.24096385542168
 20
63.958915662650611
 11
416.24096385542168
 21
40.778915662650604
  0
POINT
  8
_0-a_
 62
    4
 10
416.24096385542168
 20
40.778915662650604
  0
LINE
  8
_0-a_
  6
CONTINUOUS
 62
    4
 10
416.24096385542168
 20
40.778915662650604
 11
388.59036144578312
 21
40.778915662650604
  0
TEXT
  8
_0-a_
 62
    3
 10
415.74096385542168
 20
44.368915662650608
 40
6
 41
1
 50
90
  1
23.18
  0
LINE
  8
_0-3_
  6
CONTINUOUS
 62
    7
 10
87.404734939759038
 20
213.60321285140563
 11
72.404734939759038
 21
208.60321285140563
  0
LINE
  8
_0-3_
  6
CONTINUOUS
 62
    7
 10
72.404734939759038
 20
198.60321285140563
 11
87.404734939759038
 21
193.60321285140563
  0
LINE
  8
_0-3_
  6
CONTINUOUS
 62
    7
 10
87.404734939759038
 20
143.60321285140563
 11
72.404734939759038
 21
148.60321285140563
  0
LINE
  8
_0-3_
  6
CONTINUOUS
 62
    7
 10
72.404734939759038
 20
158.60321285140563
 11
87.404734939759038
 21
163.60321285140563
  0
LINE
  8
_0-3_
  6
CONTINUOUS
 62
    7
 10
323.02473493975901
 20
163.60321285140563
 11
338.02473493975901
 21
168.60321285140563
  0
LINE
  8
_0-3_
  6
CONTINUOUS
 62
    7
 10
338.02473493975901
 20
188.60321285140563
 11
323.02473493975901
 21
193.60321285140563
  0
LINE
  8
_0-3_
  6
CONTINUOUS
 62
    7
 10
72.404734939759038
 20
208.60321285140563
 11
72.404734939759038
 21
198.60321285140563
  0
LINE
  8
_0-3_
  6
CONTINUOUS
 62
    7
 10
72.404734939759038
 20
158.60321285140563
 11
72.404734939759038
 21
148.60321285140563
  0
LINE
  8
_0-3_
  6
CONTINUOUS
 62
    7
 10
338.02473493975901
 20
188.60321285140563
 11
338.02473493975901
 21
168.60321285140563
  0
LINE
  8
_0-3_
  6
CONTINUOUS
 62
    7
 10
87.404734939759038
 20
193.60321285140563
 11
87.404734939759038
 21
163.60321285140563
  0
LINE
  8
_0-3_
  6
CONTINUOUS
 62
    7
 10
323.02473493975901
 20
143.60321285140563
 11
323.02473493975901
 21
163.60321285140563
  0
LINE
  8
_0-3_
  6
CONTINUOUS
 62
    7
 10
323.02473493975901
 20
193.60321285140563
 11
323.02473493975901
 21
213.60321285140563
  0
LINE
  8
_0-3_
  6
DASHED3
 62
    7
 10
87.404734939759038
 20
213.60321285140563
 11
87.404734939759038
 21
193.60321285140563
  0
LINE
  8
_0-3_
  6
DASHED3
 62
    7
 10
87.404734939759038
 20
163.60321285140563
 11
87.404734939759038
 21
143.60321285140563
  0
LINE
  8
_0-3_
  6
DASHED3
 62
    7
 10
323.02473493975901
 20
163.60321285140563
 11
323.02473493975901
 21
193.60321285140563
  0
LINE
  8
_0-3_
  6
CONTINUOUS
 62
    7
 10
136.30973493975904
 20
113.60321285140563
 11
156.30973493975904
 21
113.60321285140563
  0
LINE
  8
_0-3_
  6
CONTINUOUS
 62
    7
 10
136.30973493975904
 20
73.60321285140563
 11
156.30973493975904
 21
73.60321285140563
  0
LINE
  8
_0-3_
  6
CONTINUOUS
 62
    7
 10
254.11973493975904
 20
113.60321285140563
 11
274.11973493975904
 21
113.60321285140563
  0
LINE
  8
_0-3_
  6
CONTINUOUS
 62
    7
 10
254.11973493975904
 20
73.60321285140563
 11
274.11973493975904
 21
73.60321285140563
  0
LINE
  8
_0-3_
  6
CONTINUOUS
 62
    7
 10
136.30973493975904
 20
113.60321285140563
 11
136.30973493975904
 21
73.60321285140563
  0
LINE
  8
_0-3_
  6
CONTINUOUS
 62
    7
 10
156.30973493975904
 20
113.60321285140563
 11
156.30973493975904
 21
73.60321285140563
  0
LINE
  8
_0-3_
  6
CONTINUOUS
 62
    7
 10
254.11973493975904
 20
113.60321285140563
 11
254.11973493975904
 21
73.60321285140563
  0
LINE
  8
_0-3_
  6
CONTINUOUS
 62
    7
 10
274.11973493975904
 20
113.60321285140563
 11
274.11973493975904
 21
73.60321285140563
  0
LINE
  8
_0-3_
  6
DASHED3
 62
    7
 10
136.30973493975904
 20
93.60321285140563
 11
156.30973493975904
 21
93.60321285140563
  0
LINE
  8
_0-3_
  6
DASHED3
 62
    7
 10
254.11973493975904
 20
93.60321285140563
 11
274.11973493975904
 21
93.60321285140563
  0
CIRCLE
  8
_0-3_
  6
CONTINUOUS
 62
    7
 10
146.30973493975904
 20
95.60321285140563
 40
2
  0
CIRCLE
  8
_0-3_
  6
CONTINUOUS
 62
    7
 10
264.11973493975904
 20
95.60321285140563
 40
2
  0
LINE
  8
_0-3_
  6
CONTINUOUS
 62
    7
 10
87.404734939759038
 20
143.60321285140563
 11
144.30973493975904
 21
143.60321285140563
  0
ARC
  8
_0-3_
  6
CONTINUOUS
 62
    7
 10
146.30973493975904
 20
143.60321285140563
 40
2
 50
0
 51
180
  0
LINE
  8
_0-3_
  6
CONTINUOUS
 62
    7
 10
148.30973493975904
 20
143.60321285140563
 11
262.11973493975904
 21
143.60321285140563
  0
ARC
  8
_0-3_
  6
CONTINUOUS
 62
    7
 10
264.11973493975904
 20
143.60321285140563
 40
2
 50
0
 51
180
  0
LINE
  8
_0-3_
  6
CONTINUOUS
 62
    7
 10
266.11973493975904
 20
143.60321285140563
 11
323.02473493975901
 21
143.60321285140563
  0
CIRCLE
  8
_0-2_
  6
CONTINUOUS
 62
    7
 10
363
 20
98.728915662650621
 40
2
  0
LINE
  8
_0-2_
  6
DASHED1
 62
    7
 10
367
 20
108.72891566265062
 11
367
 21
88.728915662650621
  0
LINE
  8
_0-2_
  6
DASHED1
 62
    7
 10
367
 20
108.72891566265062
 11
387
 21
108.72891566265062
  0
LINE
  8
_0-2_
  6
DASHED1
 62
    7
 10
367
 20
88.728915662650621
 11
387
 21
88.728915662650621
  0
TEXT
  8
_0-a_
 62
    3
 10
339.41999762467174
 20
115.03922590691353
 40
6
 41
1
 50
0
  1
φ4
  0
LINE
  8
_0-a_
  6
CONTINUOUS
 62
    4
 10
353.80020489280469
 20
114.66342820753653
 11
337.14538328560684
 21
114.66342820753653
  0
LINE
  8
_0-a_
  6
CONTINUOUS
 62
    4
 10
367
 20
116.58698979928477
 11
387
 21
116.58698979928477
  0
POINT
  8
_0-a_
 62
    4
 10
367
 20
116.58698979928477
  0
POINT
  8
_0-a_
 62
    4
 10
387
 20
116.58698979928477
  0
LINE
  8
_0-a_
  6
CONTINUOUS
 62
    4
 10
367
 20
116.58698979928477
 11
367
 21
109.40079045645891
  0
LINE
  8
_0-a_
  6
CONTINUOUS
 62
    4
 10
387
 20
116.58698979928477
 11
387
 21
109.40079045645891
  0
TEXT
  8
_0-a_
 62
    3
 10
373.875
 20
117.08698979928477
 40
6
 41
1
 50
0
  1
20
  0
LINE
  8
_0-a_
  6
CENTER1
 62
    4
 10
359.11542232846517
 20
98.728915662650621
 11
404.29318148827508
 21
98.728915662650621
  0
LINE
  8
_0-a_
  6
CONTINUOUS
 62
    4
 10
355.2322015334064
 20
108.72891566265062
 11
355.2322015334064
 21
98.728915662650621
  0
POINT
  8
_0-a_
 62
    4
 10
355.2322015334064
 20
108.72891566265062
  0
POINT
  8
_0-a_
 62
    4
 10
355.2322015334064
 20
98.728915662650621
  0
LINE
  8
_0-a_
  6
CONTINUOUS
 62
    4
 10
355.2322015334064
 20
108.72891566265062
 11
366.65444252365432
 21
108.72891566265062
  0
LINE
  8
_0-a_
  6
CONTINUOUS
 62
    4
 10
355.2322015334064
 20
98.728915662650621
 11
366.65444252365432
 21
98.728915662650621
  0
TEXT
  8
_0-a_
 62
    3
 10
354.7322015334064
 20
100.60391566265062
 40
6
 41
1
 50
90
  1
10
  0
LINE
  8
_0-a_
  6
CONTINUOUS
 62
    4
 10
355.2322015334064
 20
98.728915662650621
 11
355.2322015334064
 21
88.728915662650621
  0
POINT
  8
_0-a_
 62
    4
 10
355.2322015334064
 20
88.728915662650621
  0
LINE
  8
_0-a_
  6
CONTINUOUS
 62
    4
 10
355.2322015334064
 20
88.728915662650621
 11
366.65444252365432
 21
88.728915662650621
  0
TEXT
  8
_0-a_
 62
    3
 10
354.7322015334064
 20
90.603915662650621
 40
6
 41
1
 50
90
  1
10
  0
LINE
  8
_0-a_
  6
CONTINUOUS
 62
    4
 10
363
 20
98.728915662650621
 11
353.80020489280469
 21
114.66342820753653
  0
LINE
  8
_0-a_
  6
CONTINUOUS
 62
    4
 10
367
 20
116.58698979928477
 11
363
 21
116.58698979928477
  0
POINT
  8
_0-a_
 62
    4
 10
367
 20
116.58698979928477
  0
POINT
  8
_0-a_
 62
    4
 10
363
 20
116.58698979928477
  0
LINE
  8
_0-a_
  6
CONTINUOUS
 62
    4
 10
367
 20
116.58698979928477
 11
367
 21
109.40079045645891
  0
TEXT
  8
_0-a_
 62
    3
 10
363.5
 20
117.08698979928477
 40
6
 41
1
 50
0
  1
4
  0
LINE
  8
_0-a_
  6
CONTINUOUS
 62
    4
 10
363
 20
116.58698979928477
 11
363
 21
99.339256258330153
  0
LINE
  8
_0-3_
  6
DASHED1
 62
    7
 10
136.30973493975904
 20
161.60321285140563
 11
156.30973493975904
 21
161.60321285140563
  0
LINE
  8
_0-3_
  6
DASHED1
 62
    7
 10
254.11973493975904
 20
161.60321285140563
 11
274.11973493975904
 21
161.60321285140563
  0
LINE
  8
_0-3_
  6
DASHED1
 62
    7
 10
136.30973493975904
 20
161.60321285140563
 11
136.30973493975904
 21
143.60321285140563
  0
LINE
  8
_0-3_
  6
DASHED1
 62
    7
 10
156.30973493975904
 20
161.60321285140563
 11
156.30973493975904
 21
143.60321285140563
  0
LINE
  8
_0-3_
  6
DASHED1
 62
    7
 10
254.11973493975904
 20
161.60321285140563
 11
254.11973493975904
 21
143.60321285140563
  0
LINE
  8
_0-3_
  6
DASHED1
 62
    7
 10
274.11973493975904
 20
161.60321285140563
 11
274.11973493975904
 21
143.60321285140563
  0
LINE
  8
_0-b_
  6
CENTER1
 62
    4
 10
144.30973493975904
 20
143.60321285140563
 11
148.30973493975904
 21
143.60321285140563
  0
LINE
  8
_0-b_
  6
CENTER1
 62
    4
 10
262.11973493975904
 20
143.60321285140563
 11
266.11973493975904
 21
143.60321285140563
  0
LINE
  8
_0-b_
  6
CENTER1
 62
    4
 10
262.11973493975904
 20
95.60321285140563
 11
266.11973493975904
 21
95.60321285140563
  0
LINE
  8
_0-b_
  6
CENTER1
 62
    4
 10
146.30973493975904
 20
161.60321285140563
 11
146.30973493975904
 21
73.60321285140563
  0
LINE
  8
_0-b_
  6
CENTER1
 62
    4
 10
264.11973493975904
 20
161.60321285140563
 11
264.11973493975904
 21
73.60321285140563
  0
LINE
  8
_0-b_
  6
CENTER1
 62
    4
 10
144.30973493975904
 20
95.60321285140563
 11
148.30973493975904
 21
95.60321285140563
  0
LINE
  8
_0-b_
  6
CONTINUOUS
 62
    4
 10
87.404734939759038
 20
129.30722891566265
 11
136.30973493975904
 21
129.30722891566265
  0
POINT
  8
_0-b_
 62
    4
 10
87.404734939759038
 20
129.30722891566265
  0
POINT
  8
_0-b_
 62
    4
 10
136.30973493975904
 20
129.30722891566265
  0
LINE
  8
_0-b_
  6
CONTINUOUS
 62
    4
 10
87.404734939759038
 20
129.30722891566265
 11
87.404734939759038
 21
142.31927710843374
  0
LINE
  8
_0-b_
  6
CONTINUOUS
 62
    4
 10
136.30973493975904
 20
129.30722891566265
 11
136.30973493975904
 21
142.31927710843374
  0
TEXT
  8
_0-b_
 62
    3
 10
102.23223493975904
 20
129.80722891566265
 40
6
 41
1
 50
0
  1
48.905
  0
LINE
  8
_0-b_
  6
CONTINUOUS
 62
    4
 10
136.30973493975904
 20
129.30722891566265
 11
156.30973493975904
 21
129.30722891566265
  0
POINT
  8
_0-b_
 62
    4
 10
156.30973493975904
 20
129.30722891566265
  0
LINE
  8
_0-b_
  6
CONTINUOUS
 62
    4
 10
156.30973493975904
 20
129.30722891566265
 11
156.30973493975904
 21
142.31927710843374
  0
TEXT
  8
_0-b_
 62
    3
 10
143.18473493975904
 20
129.80722891566265
 40
6
 41
1
 50
0
  1
20
  0
LINE
  8
_0-b_
  6
CONTINUOUS
 62
    4
 10
156.30973493975904
 20
129.30722891566265
 11
254.11973493975904
 21
129.30722891566265
  0
POINT
  8
_0-b_
 62
    4
 10
254.11973493975904
 20
129.30722891566265
  0
LINE
  8
_0-b_
  6
CONTINUOUS
 62
    4
 10
254.11973493975904
 20
129.30722891566265
 11
254.11973493975904
 21
142.31927710843374
  0
TEXT
  8
_0-b_
 62
    3
 10
197.21473493975904
 20
129.80722891566265
 40
6
 41
1
 50
0
  1
97.81
  0
LINE
  8
_0-b_
  6
CONTINUOUS
 62
    4
 10
254.11973493975904
 20
129.30722891566265
 11
274.11973493975904
 21
129.30722891566265
  0
POINT
  8
_0-b_
 62
    4
 10
274.11973493975904
 20
129.30722891566265
  0
LINE
  8
_0-b_
  6
CONTINUOUS
 62
    4
 10
274.11973493975904
 20
129.30722891566265
 11
274.11973493975904
 21
142.31927710843374
  0
TEXT
  8
_0-b_
 62
    3
 10
260.99473493975904
 20
129.80722891566265
 40
6
 41
1
 50
0
  1
20
  0
LINE
  8
_0-b_
  6
CONTINUOUS
 62
    4
 10
274.11973493975904
 20
129.30722891566265
 11
323.02473493975901
 21
129.30722891566265
  0
POINT
  8
_0-b_
 62
    4
 10
323.02473493975901
 20
129.30722891566265
  0
LINE
  8
_0-b_
  6
CONTINUOUS
 62
    4
 10
323.02473493975901
 20
129.30722891566265
 11
323.02473493975901
 21
142.31927710843374
  0
TEXT
  8
_0-b_
 62
    3
 10
288.94723493975903
 20
129.80722891566265
 40
6
 41
1
 50
0
  1
48.905
  0
LINE
  8
_0-b_
  6
CONTINUOUS
 62
    4
 10
63.614457831325296
 20
213.60321285140563
 11
63.614457831325296
 21
208.60321285140563
  0
POINT
  8
_0-b_
 62
    4
 10
63.614457831325296
 20
213.60321285140563
  0
POINT
  8
_0-b_
 62
    4
 10
63.614457831325296
 20
208.60321285140563
  0
LINE
  8
_0-b_
  6
CONTINUOUS
 62
    4
 10
63.614457831325296
 20
208.60321285140563
 11
71.09638554216869
 21
208.60321285140563
  0
TEXT
  8
_0-b_
 62
    3
 10
63.114457831325296
 20
209.60321285140563
 40
6
 41
1
 50
90
  1
5
  0
LINE
  8
_0-b_
  6
CONTINUOUS
 62
    4
 10
63.614457831325296
 20
208.60321285140563
 11
63.614457831325296
 21
198.60321285140563
  0
POINT
  8
_0-b_
 62
    4
 10
63.614457831325296
 20
198.60321285140563
  0
LINE
  8
_0-b_
  6
CONTINUOUS
 62
    4
 10
63.614457831325296
 20
198.60321285140563
 11
71.09638554216869
 21
198.60321285140563
  0
TEXT
  8
_0-b_
 62
    3
 10
63.114457831325296
 20
200.47821285140563
 40
6
 41
1
 50
90
  1
10
  0
LINE
  8
_0-b_
  6
CONTINUOUS
 62
    4
 10
63.614457831325296
 20
198.60321285140563
 11
63.614457831325296
 21
193.60321285140563
  0
POINT
  8
_0-b_
 62
    4
 10
63.614457831325296
 20
193.60321285140563
  0
TEXT
  8
_0-b_
 62
    3
 10
63.114457831325296
 20
194.60321285140563
 40
6
 41
1
 50
90
  1
5
  0
LINE
  8
_0-b_
  6
CONTINUOUS
 62
    4
 10
63.614457831325296
 20
193.60321285140563
 11
63.614457831325296
 21
163.60321285140563
  0
POINT
  8
_0-b_
 62
    4
 10
63.614457831325296
 20
163.60321285140563
  0
TEXT
  8
_0-b_
 62
    3
 10
63.114457831325296
 20
175.47821285140563
 40
6
 41
1
 50
90
  1
30
  0
LINE
  8
_0-b_
  6
CONTINUOUS
 62
    4
 10
63.614457831325296
 20
163.60321285140563
 11
63.614457831325296
 21
158.60321285140563
  0
POINT
  8
_0-b_
 62
    4
 10
63.614457831325296
 20
158.60321285140563
  0
LINE
  8
_0-b_
  6
CONTINUOUS
 62
    4
 10
63.614457831325296
 20
158.60321285140563
 11
71.09638554216869
 21
158.60321285140563
  0
TEXT
  8
_0-b_
 62
    3
 10
63.114457831325296
 20
159.60321285140563
 40
6
 41
1
 50
90
  1
5
  0
LINE
  8
_0-b_
  6
CONTINUOUS
 62
    4
 10
63.614457831325296
 20
158.60321285140563
 11
63.614457831325296
 21
148.60321285140563
  0
POINT
  8
_0-b_
 62
    4
 10
63.614457831325296
 20
148.60321285140563
  0
LINE
  8
_0-b_
  6
CONTINUOUS
 62
    4
 10
63.614457831325296
 20
148.60321285140563
 11
71.09638554216869
 21
148.60321285140563
  0
TEXT
  8
_0-b_
 62
    3
 10
63.114457831325296
 20
150.47821285140563
 40
6
 41
1
 50
90
  1
10
  0
LINE
  8
_0-b_
  6
CONTINUOUS
 62
    4
 10
63.614457831325296
 20
148.60321285140563
 11
63.614457831325296
 21
143.60321285140563
  0
POINT
  8
_0-b_
 62
    4
 10
63.614457831325296
 20
143.60321285140563
  0
TEXT
  8
_0-b_
 62
    3
 10
63.114457831325296
 20
144.60321285140563
 40
6
 41
1
 50
90
  1
5
  0
LINE
  8
_0-b_
  6
CONTINUOUS
 62
    4
 10
63.614457831325296
 20
193.60321285140563
 11
85.409638554216869
 21
193.60321285140563
  0
LINE
  8
_0-b_
  6
CONTINUOUS
 62
    4
 10
63.614457831325296
 20
163.60321285140563
 11
85.409638554216869
 21
163.60321285140563
  0
LINE
  8
_0-b_
  6
CONTINUOUS
 62
    4
 10
63.614457831325296
 20
143.60321285140563
 11
85.409638554216869
 21
143.60321285140563
  0
LINE
  8
_0-b_
  6
CONTINUOUS
 62
    4
 10
63.614457831325296
 20
213.60321285140563
 11
85.409638554216869
 21
213.60321285140563
  0
LINE
  8
_0-b_
  6
CONTINUOUS
 62
    4
 10
351.86548736753031
 20
213.60321285140563
 11
351.86548736753031
 21
193.60321285140563
  0
POINT
  8
_0-b_
 62
    4
 10
351.86548736753031
 20
213.60321285140563
  0
POINT
  8
_0-b_
 62
    4
 10
351.86548736753031
 20
193.60321285140563
  0
LINE
  8
_0-b_
  6
CONTINUOUS
 62
    4
 10
351.86548736753031
 20
213.60321285140563
 11
324.77997340532698
 21
213.60321285140563
  0
LINE
  8
_0-b_
  6
CONTINUOUS
 62
    4
 10
351.86548736753031
 20
193.60321285140563
 11
324.77997340532698
 21
193.60321285140563
  0
TEXT
  8
_0-b_
 62
    3
 10
351.36548736753031
 20
200.47821285140563
 40
6
 41
1
 50
90
  1
20
  0
LINE
  8
_0-b_
  6
CONTINUOUS
 62
    4
 10
351.86548736753031
 20
193.60321285140563
 11
351.86548736753031
 21
188.60321285140563
  0
POINT
  8
_0-b_
 62
    4
 10
351.86548736753031
 20
188.60321285140563
  0
TEXT
  8
_0-b_
 62
    3
 10
351.36548736753031
 20
189.60321285140563
 40
6
 41
1
 50
90
  1
5
  0
LINE
  8
_0-b_
  6
CONTINUOUS
 62
    4
 10
351.86548736753031
 20
188.60321285140563
 11
351.86548736753031
 21
168.60321285140563
  0
POINT
  8
_0-b_
 62
    4
 10
351.86548736753031
 20
168.60321285140563
  0
TEXT
  8
_0-b_
 62
    3
 10
351.36548736753031
 20
175.47821285140563
 40
6
 41
1
 50
90
  1
20
  0
LINE
  8
_0-b_
  6
CONTINUOUS
 62
    4
 10
351.86548736753031
 20
168.60321285140563
 11
351.86548736753031
 21
163.60321285140563
  0
POINT
  8
_0-b_
 62
    4
 10
351.86548736753031
 20
163.60321285140563
  0
TEXT
  8
_0-b_
 62
    3
 10
351.36548736753031
 20
164.60321285140563
 40
6
 41
1
 50
90
  1
5
  0
LINE
  8
_0-b_
  6
CONTINUOUS
 62
    4
 10
351.86548736753031
 20
163.60321285140563
 11
351.86548736753031
 21
143.60321285140563
  0
POINT
  8
_0-b_
 62
    4
 10
351.86548736753031
 20
143.60321285140563
  0
LINE
  8
_0-b_
  6
CONTINUOUS
 62
    4
 10
351.86548736753031
 20
143.60321285140563
 11
324.77997340532698
 21
143.60321285140563
  0
TEXT
  8
_0-b_
 62
    3
 10
351.36548736753031
 20
150.47821285140563
 40
6
 41
1
 50
90
  1
20
  0
LINE
  8
_0-b_
  6
CONTINUOUS
 62
    4
 10
351.86548736753031
 20
168.60321285140563
 11
339.44093967844623
 21
168.60321285140563
  0
LINE
  8
_0-b_
  6
CONTINUOUS
 62
    4
 10
351.86548736753031
 20
188.60321285140563
 11
339.44093967844623
 21
188.60321285140563
  0
LINE
  8
_0-b_
  6
CONTINUOUS
 62
    4
 10
126.07228915662651
 20
143.60321285140563
 11
126.07228915662651
 21
161.60321285140563
  0
POINT
  8
_0-b_
 62
    4
 10
126.07228915662651
 20
143.60321285140563
  0
POINT
  8
_0-b_
 62
    4
 10
126.07228915662651
 20
161.60321285140563
  0
TEXT
  8
_0-b_
 62
    3
 10
125.57228915662651
 20
149.47821285140563
 40
6
 41
1
 50
90
  1
18
  0
LINE
  8
_0-b_
  6
CONTINUOUS
 62
    4
 10
126.07228915662651
 20
161.60321285140563
 11
251.96385542168673
 21
161.60321285140563
  0
LINE
  8
_0-b_
  6
CONTINUOUS
 62
    4
 10
144.30973493975904
 20
143.60321285140563
 11
148.30973493975904
 21
143.60321285140563
  0
POINT
  8
_0-b_
 62
    4
 10
144.30973493975904
 20
143.60321285140563
  0
POINT
  8
_0-b_
 62
    4
 10
148.30973493975904
 20
143.60321285140563
  0
LINE
  8
_0-b_
  6
CONTINUOUS
 62
    4
 10
266.11973493975904
 20
143.60321285140563
 11
262.11973493975904
 21
143.60321285140563
  0
POINT
  8
_0-b_
 62
    4
 10
266.11973493975904
 20
143.60321285140563
  0
POINT
  8
_0-b_
 62
    4
 10
262.11973493975904
 20
143.60321285140563
  0
LINE
  8
_0-b_
  6
CONTINUOUS
 62
    4
 10
146.30973493975904
 20
143.60321285140563
 11
153.61874872409163
 21
170.88082364775613
  0
LINE
  8
_0-b_
  6
CONTINUOUS
 62
    4
 10
153.61874872409163
 20
170.88082364775613
 11
165.94110505549031
 21
170.88082364775613
  0
LINE
  8
_0-b_
  6
CONTINUOUS
 62
    4
 10
262.11973493975904
 20
143.60321285140563
 11
254.81072115542645
 21
170.88082364775613
  0
TEXT
  8
_0-b_
 62
    3
 10
154.98704126473032
 20
171.31170245054699
 40
6
 41
1
 50
0
  1
φ4
  0
TEXT
  8
_0-b_
 62
    3
 10
244.41529975322979
 20
171.49127726678896
 40
6
 41
1
 50
0
  1
φ4
  0
LINE
  8
_0-b_
  6
CONTINUOUS
 62
    4
 10
244.05615012074585
 20
170.88082364775613
 11
254.81072115542645
 21
170.88082364775613
  0
LINE
  8
_0-b_
  6
CONTINUOUS
 62
    4
 10
133.96089777168876
 20
143.60321285140563
 11
133.96089777168876
 21
145.60321285140563
  0
POINT
  8
_0-b_
 62
    4
 10
133.96089777168876
 20
143.60321285140563
  0
POINT
  8
_0-b_
 62
    4
 10
133.96089777168876
 20
145.60321285140563
  0
TEXT
  8
_0-b_
 62
    3
 10
133.46089777168876
 20
143.10321285140563
 40
6
 41
1
 50
90
  1
2
  0
LINE
  8
_0-b_
  6
CONTINUOUS
 62
    4
 10
133.96089777168876
 20
145.60321285140563
 11
145.9859451182657
 21
145.60321285140563
  0
LINE
  8
_0-b_
  6
CONTINUOUS
 62
    4
 10
250.00207181409098
 20
143.60321285140563
 11
250.00207181409098
 21
145.60321285140563
  0
POINT
  8
_0-b_
 62
    4
 10
250.00207181409098
 20
143.60321285140563
  0
POINT
  8
_0-b_
 62
    4
 10
250.00207181409098
 20
145.60321285140563
  0
TEXT
  8
_0-b_
 62
    3
 10
249.50207181409098
 20
143.10321285140563
 40
6
 41
1
 50
90
  1
2
  0
LINE
  8
_0-b_
  6
CONTINUOUS
 62
    4
 10
250.00207181409098
 20
145.60321285140563
 11
262.95283653782712
 21
145.60321285140563
  0
LINE
  8
_0-b_
  6
CONTINUOUS
 62
    4
 10
136.30973493975904
 20
64.75441431276947
 11
156.30973493975904
 21
64.75441431276947
  0
POINT
  8
_0-b_
 62
    4
 10
136.30973493975904
 20
64.75441431276947
  0
POINT
  8
_0-b_
 62
    4
 10
156.30973493975904
 20
64.75441431276947
  0
LINE
  8
_0-b_
  6
CONTINUOUS
 62
    4
 10
136.30973493975904
 20
64.75441431276947
 11
136.30973493975904
 21
72.767921183059997
  0
LINE
  8
_0-b_
  6
CONTINUOUS
 62
    4
 10
156.30973493975904
 20
64.75441431276947
 11
156.30973493975904
 21
72.767921183059997
  0
TEXT
  8
_0-b_
 62
    3
 10
143.18473493975904
 20
65.25441431276947
 40
6
 41
1
 50
0
  1
20
  0
POINT
  8
_0-b_
 62
    4
 10
254.11973493975904
 20
64.75441431276947
  0
LINE
  8
_0-b_
  6
CONTINUOUS
 62
    4
 10
254.11973493975904
 20
64.75441431276947
 11
254.11973493975904
 21
72.767921183059997
  0
LINE
  8
_0-b_
  6
CONTINUOUS
 62
    4
 10
254.11973493975904
 20
64.75441431276947
 11
274.11973493975904
 21
64.75441431276947
  0
POINT
  8
_0-b_
 62
    4
 10
274.11973493975904
 20
64.75441431276947
  0
LINE
  8
_0-b_
  6
CONTINUOUS
 62
    4
 10
274.11973493975904
 20
64.75441431276947
 11
274.11973493975904
 21
72.767921183059997
  0
TEXT
  8
_0-b_
 62
    3
 10
260.99473493975904
 20
65.25441431276947
 40
6
 41
1
 50
0
  1
20
  0
LINE
  8
_0-b_
  6
CONTINUOUS
 62
    4
 10
122.57078615465205
 20
113.60321285140563
 11
122.57078615465205
 21
73.60321285140563
  0
POINT
  8
_0-b_
 62
    4
 10
122.57078615465205
 20
113.60321285140563
  0
POINT
  8
_0-b_
 62
    4
 10
122.57078615465205
 20
73.60321285140563
  0
LINE
  8
_0-b_
  6
CONTINUOUS
 62
    4
 10
122.57078615465205
 20
113.60321285140563
 11
134.95529677237377
 21
113.60321285140563
  0
LINE
  8
_0-b_
  6
CONTINUOUS
 62
    4
 10
122.57078615465205
 20
73.60321285140563
 11
134.95529677237377
 21
73.60321285140563
  0
TEXT
  8
_0-b_
 62
    3
 10
122.07078615465205
 20
90.47821285140563
 40
6
 41
1
 50
90
  1
40
  0
LINE
  8
_0-b_
  6
CONTINUOUS
 62
    4
 10
133.23897164263218
 20
113.60321285140563
 11
133.23897164263218
 21
95.60321285140563
  0
POINT
  8
_0-b_
 62
    4
 10
133.23897164263218
 20
113.60321285140563
  0
POINT
  8
_0-b_
 62
    4
 10
133.23897164263218
 20
95.60321285140563
  0
LINE
  8
_0-b_
  6
CONTINUOUS
 62
    4
 10
133.23897164263218
 20
113.60321285140563
 11
143.76752119490573
 21
113.60321285140563
  0
LINE
  8
_0-b_
  6
CONTINUOUS
 62
    4
 10
133.23897164263218
 20
95.60321285140563
 11
143.76752119490573
 21
95.60321285140563
  0
TEXT
  8
_0-b_
 62
    3
 10
132.73897164263218
 20
101.47821285140563
 40
6
 41
1
 50
90
  1
18
  0
LINE
  8
_0-b_
  6
CONTINUOUS
 62
    4
 10
146.30973493975904
 20
95.60321285140563
 11
157.73113583048422
 21
102.19736173018845
  0
LINE
  8
_0-b_
  6
CONTINUOUS
 62
    4
 10
157.73113583048422
 20
102.19736173018845
 11
170.0932667123343
 21
102.19736173018845
  0
TEXT
  8
_0-b_
 62
    3
 10
159.70495225047347
 20
102.7136922271024
 40
6
 41
1
 50
0
  1
φ4
  0
LINE
  8
_0-b_
  6
CONTINUOUS
 62
    4
 10
264.11973493975904
 20
95.60321285140563
 11
275.54113583048422
 21
102.19736173018845
  0
TEXT
  8
_0-b_
 62
    3
 10
277.67635894749566
 20
103.1406092597816
 40
6
 41
1
 50
0
  1
φ4
  0
LINE
  8
_0-b_
  6
CONTINUOUS
 62
    4
 10
275.54113583048422
 20
102.19736173018845
 11
288.06467340935649
 21
102.19736173018845
  0
LINE
  8
_0-b_
  6
CONTINUOUS
 62
    4
 10
245.7831325301205
 20
113.60321285140563
 11
245.7831325301205
 21
93.60321285140563
  0
POINT
  8
_0-b_
 62
    4
 10
245.7831325301205
 20
113.60321285140563
  0
POINT
  8
_0-b_
 62
    4
 10
245.7831325301205
 20
93.60321285140563
  0
LINE
  8
_0-b_
  6
CONTINUOUS
 62
    4
 10
245.7831325301205
 20
113.60321285140563
 11
251.63855421686748
 21
113.60321285140563
  0
LINE
  8
_0-b_
  6
CONTINUOUS
 62
    4
 10
245.7831325301205
 20
93.60321285140563
 11
251.63855421686748
 21
93.60321285140563
  0
TEXT
  8
_0-b_
 62
    3
 10
245.2831325301205
 20
100.47821285140563
 40
6
 41
1
 50
90
  1
20
  0
LINE
  8
_0-b_
  6
CONTINUOUS
 62
    4
 10
245.7831325301205
 20
93.60321285140563
 11
245.7831325301205
 21
73.60321285140563
  0
POINT
  8
_0-b_
 62
    4
 10
245.7831325301205
 20
73.60321285140563
  0
LINE
  8
_0-b_
  6
CONTINUOUS
 62
    4
 10
245.7831325301205
 20
73.60321285140563
 11
251.63855421686748
 21
73.60321285140563
  0
TEXT
  8
_0-b_
 62
    3
 10
245.2831325301205
 20
80.47821285140563
 40
6
 41
1
 50
90
  1
20
  0
LINE
  8
_0-b_
  6
CONTINUOUS
 62
    4
 10
46.048192771084331
 20
213.60321285140563
 11
46.048192771084331
 21
143.60321285140563
  0
POINT
  8
_0-b_
 62
    4
 10
46.048192771084331
 20
213.60321285140563
  0
POINT
  8
_0-b_
 62
    4
 10
46.048192771084331
 20
143.60321285140563
  0
LINE
  8
_0-b_
  6
CONTINUOUS
 62
    4
 10
46.048192771084331
 20
213.60321285140563
 11
85.409638554216869
 21
213.60321285140563
  0
LINE
  8
_0-b_
  6
CONTINUOUS
 62
    4
 10
46.048192771084331
 20
143.60321285140563
 11
85.409638554216869
 21
143.60321285140563
  0
TEXT
  8
_0-b_
 62
    3
 10
45.548192771084331
 20
175.47821285140563
 40
6
 41
1
 50
90
  1
70
  0
ARC
  8
_0-4_
  6
CONTINUOUS
 62
    7
 10
218.78313253012047
 20
154.68072289156626
 40
82
 50
0
 51
164.60000000000002
  0
LINE
  8
_0-3_
  6
CONTINUOUS
 62
    7
 10
97.404734939759038
 20
228.60321285140563
 11
87.404734939759038
 21
213.60321285140563
  0
LINE
  8
_0-3_
  6
CONTINUOUS
 62
    7
 10
97.404734939759038
 20
228.60321285140563
 11
107.40473493975904
 21
213.60321285140563
  0
LINE
  8
_0-3_
  6
CONTINUOUS
 62
    7
 10
107.40473493975904
 20
213.60321285140563
 11
117.40473493975904
 21
228.60321285140563
  0
LINE
  8
_0-3_
  6
CONTINUOUS
 62
    7
 10
117.40473493975904
 20
228.60321285140563
 11
127.40473493975904
 21
213.60321285140563
  0
LINE
  8
_0-3_
  6
CONTINUOUS
 62
    7
 10
127.40473493975904
 20
213.60321285140563
 11
137.40473493975904
 21
228.60321285140563
  0
LINE
  8
_0-3_
  6
CONTINUOUS
 62
    7
 10
137.40473493975904
 20
228.60321285140563
 11
147.40473493975904
 21
213.60321285140563
  0
LINE
  8
_0-3_
  6
CONTINUOUS
 62
    7
 10
147.40473493975904
 20
213.60321285140563
 11
157.40473493975904
 21
228.60321285140563
  0
LINE
  8
_0-3_
  6
CONTINUOUS
 62
    7
 10
157.40473493975904
 20
228.60321285140563
 11
167.40473493975904
 21
213.60321285140563
  0
LINE
  8
_0-3_
  6
CONTINUOUS
 62
    7
 10
167.40473493975904
 20
213.60321285140563
 11
177.40473493975904
 21
228.60321285140563
  0
LINE
  8
_0-3_
  6
CONTINUOUS
 62
    7
 10
177.40473493975904
 20
228.60321285140563
 11
187.40473493975904
 21
213.60321285140563
  0
LINE
  8
_0-3_
  6
CONTINUOUS
 62
    7
 10
197.40473493975904
 20
228.60321285140563
 11
187.40473493975904
 21
213.60321285140563
  0
LINE
  8
_0-3_
  6
CONTINUOUS
 62
    7
 10
197.40473493975904
 20
228.60321285140563
 11
207.40473493975904
 21
213.60321285140563
  0
LINE
  8
_0-3_
  6
CONTINUOUS
 62
    7
 10
207.40473493975904
 20
213.60321285140563
 11
217.40473493975904
 21
228.60321285140563
  0
LINE
  8
_0-3_
  6
CONTINUOUS
 62
    7
 10
217.40473493975904
 20
228.60321285140563
 11
227.40473493975904
 21
213.60321285140563
  0
LINE
  8
_0-3_
  6
CONTINUOUS
 62
    7
 10
227.40473493975904
 20
213.60321285140563
 11
237.40473493975904
 21
228.60321285140563
  0
LINE
  8
_0-3_
  6
CONTINUOUS
 62
    7
 10
237.40473493975904
 20
228.60321285140563
 11
247.40473493975904
 21
213.60321285140563
  0
LINE
  8
_0-3_
  6
CONTINUOUS
 62
    7
 10
247.40473493975904
 20
213.60321285140563
 11
257.40473493975901
 21
228.60321285140563
  0
LINE
  8
_0-3_
  6
CONTINUOUS
 62
    7
 10
257.40473493975901
 20
228.60321285140563
 11
267.40473493975901
 21
213.60321285140563
  0
LINE
  8
_0-3_
  6
CONTINUOUS
 62
    7
 10
267.40473493975901
 20
213.60321285140563
 11
277.40473493975901
 21
228.60321285140563
  0
LINE
  8
_0-3_
  6
CONTINUOUS
 62
    7
 10
277.40473493975901
 20
228.60321285140563
 11
287.40473493975901
 21
213.60321285140563
  0
LINE
  8
_0-3_
  6
CONTINUOUS
 62
    7
 10
287.40473493975901
 20
213.60321285140563
 11
297.40473493975901
 21
228.60321285140563
  0
LINE
  8
_0-3_
  6
CONTINUOUS
 62
    7
 10
297.40473493975901
 20
228.60321285140563
 11
307.40473493975901
 21
213.60321285140563
  0
LINE
  8
_0-3_
  6
CONTINUOUS
 62
    7
 10
307.40473493975901
 20
213.60321285140563
 11
317.40473493975901
 21
228.60321285140563
  0
LINE
  8
_0-3_
  6
CONTINUOUS
 62
    7
 10
317.40473493975901
 20
228.60321285140563
 11
323.02473493975901
 21
213.60321285140563
  0
LINE
  8
_0-3_
  6
DASHED3
 62
    7
 10
323.02473493975901
 20
213.60321285140563
 11
87.404734939759038
 21
213.60321285140563
  0
LINE
  8
_0-b_
  6
CONTINUOUS
 62
    4
 10
72.404734939759038
 20
247.16918644477576
 11
87.404734939759038
 21
247.16918644477576
  0
POINT
  8
_0-b_
 62
    4
 10
72.404734939759038
 20
247.16918644477576
  0
POINT
  8
_0-b_
 62
    4
 10
87.404734939759038
 20
247.16918644477576
  0
LINE
  8
_0-b_
  6
CONTINUOUS
 62
    4
 10
87.404734939759038
 20
247.16918644477576
 11
87.404734939759038
 21
215.75705766208648
  0
TEXT
  8
_0-b_
 62
    3
 10
76.779734939759038
 20
247.66918644477576
 40
6
 41
1
 50
0
  1
15
  0
LINE
  8
_0-b_
  6
CONTINUOUS
 62
    4
 10
87.404734939759038
 20
247.16918644477576
 11
323.02473493975901
 21
247.16918644477576
  0
POINT
  8
_0-b_
 62
    4
 10
323.02473493975901
 20
247.16918644477576
  0
LINE
  8
_0-b_
  6
CONTINUOUS
 62
    4
 10
323.02473493975901
 20
247.16918644477576
 11
323.02473493975901
 21
215.75705766208648
  0
TEXT
  8
_0-b_
 62
    3
 10
195.58973493975904
 20
247.66918644477576
 40
6
 41
1
 50
0
  1
235.62
  0
LINE
  8
_0-b_
  6
CONTINUOUS
 62
    4
 10
323.02473493975901
 20
247.16918644477576
 11
338.02473493975901
 21
247.16918644477576
  0
POINT
  8
_0-b_
 62
    4
 10
338.02473493975901
 20
247.16918644477576
  0
TEXT
  8
_0-b_
 62
    3
 10
327.39973493975901
 20
247.66918644477576
 40
6
 41
1
 50
0
  1
15
  0
LINE
  8
_0-b_
  6
CONTINUOUS
 62
    4
 10
87.404734939759038
 20
236.85833501228996
 11
97.404734939759038
 21
236.85833501228996
  0
POINT
  8
_0-b_
 62
    4
 10
87.404734939759038
 20
236.85833501228996
  0
POINT
  8
_0-b_
 62
    4
 10
97.404734939759038
 20
236.85833501228996
  0
LINE
  8
_0-b_
  6
CONTINUOUS
 62
    4
 10
87.404734939759038
 20
236.85833501228996
 11
87.404734939759038
 21
215.75705766208648
  0
TEXT
  8
_0-b_
 62
    3
 10
89.279734939759038
 20
237.35833501228996
 40
6
 41
1
 50
0
  1
10
  0
LINE
  8
_0-b_
  6
CONTINUOUS
 62
    4
 10
97.404734939759038
 20
236.85833501228996
 11
107.40473493975904
 21
236.85833501228996
  0
POINT
  8
_0-b_
 62
    4
 10
107.40473493975904
 20
236.85833501228996
  0
TEXT
  8
_0-b_
 62
    3
 10
99.279734939759038
 20
237.35833501228996
 40
6
 41
1
 50
0
  1
10
  0
LINE
  8
_0-b_
  6
CONTINUOUS
 62
    4
 10
107.40473493975904
 20
236.85833501228996
 11
117.40473493975904
 21
236.85833501228996
  0
POINT
  8
_0-b_
 62
    4
 10
117.40473493975904
 20
236.85833501228996
  0
TEXT
  8
_0-b_
 62
    3
 10
109.27973493975904
 20
237.35833501228996
 40
6
 41
1
 50
0
  1
10
  0
LINE
  8
_0-b_
  6
CONTINUOUS
 62
    4
 10
117.40473493975904
 20
236.85833501228996
 11
127.40473493975904
 21
236.85833501228996
  0
POINT
  8
_0-b_
 62
    4
 10
127.40473493975904
 20
236.85833501228996
  0
LINE
  8
_0-b_
  6
CONTINUOUS
 62
    4
 10
127.40473493975904
 20
236.85833501228996
 11
127.40473493975904
 21
215.75705766208648
  0
TEXT
  8
_0-b_
 62
    3
 10
119.27973493975904
 20
237.35833501228996
 40
6
 41
1
 50
0
  1
10
  0
LINE
  8
_0-b_
  6
CONTINUOUS
 62
    4
 10
127.40473493975904
 20
236.85833501228996
 11
137.40473493975904
 21
236.85833501228996
  0
POINT
  8
_0-b_
 62
    4
 10
137.40473493975904
 20
236.85833501228996
  0
TEXT
  8
_0-b_
 62
    3
 10
129.27973493975904
 20
237.35833501228996
 40
6
 41
1
 50
0
  1
10
  0
LINE
  8
_0-b_
  6
CONTINUOUS
 62
    4
 10
137.40473493975904
 20
236.85833501228996
 11
147.40473493975904
 21
236.85833501228996
  0
POINT
  8
_0-b_
 62
    4
 10
147.40473493975904
 20
236.85833501228996
  0
LINE
  8
_0-b_
  6
CONTINUOUS
 62
    4
 10
147.40473493975904
 20
236.85833501228996
 11
147.40473493975904
 21
215.75705766208648
  0
TEXT
  8
_0-b_
 62
    3
 10
139.27973493975904
 20
237.35833501228996
 40
6
 41
1
 50
0
  1
10
  0
LINE
  8
_0-b_
  6
CONTINUOUS
 62
    4
 10
147.40473493975904
 20
236.85833501228996
 11
157.40473493975904
 21
236.85833501228996
  0
POINT
  8
_0-b_
 62
    4
 10
157.40473493975904
 20
236.85833501228996
  0
TEXT
  8
_0-b_
 62
    3
 10
149.27973493975904
 20
237.35833501228996
 40
6
 41
1
 50
0
  1
10
  0
LINE
  8
_0-b_
  6
CONTINUOUS
 62
    4
 10
157.40473493975904
 20
236.85833501228996
 11
167.40473493975904
 21
236.85833501228996
  0
POINT
  8
_0-b_
 62
    4
 10
167.40473493975904
 20
236.85833501228996
  0
LINE
  8
_0-b_
  6
CONTINUOUS
 62
    4
 10
167.40473493975904
 20
236.85833501228996
 11
167.40473493975904
 21
215.75705766208648
  0
TEXT
  8
_0-b_
 62
    3
 10
159.27973493975904
 20
237.35833501228996
 40
6
 41
1
 50
0
  1
10
  0
LINE
  8
_0-b_
  6
CONTINUOUS
 62
    4
 10
167.40473493975904
 20
236.85833501228996
 11
177.40473493975904
 21
236.85833501228996
  0
POINT
  8
_0-b_
 62
    4
 10
177.40473493975904
 20
236.85833501228996
  0
TEXT
  8
_0-b_
 62
    3
 10
169.27973493975904
 20
237.35833501228996
 40
6
 41
1
 50
0
  1
10
  0
LINE
  8
_0-b_
  6
CONTINUOUS
 62
    4
 10
177.40473493975904
 20
236.85833501228996
 11
187.40473493975904
 21
236.85833501228996
  0
POINT
  8
_0-b_
 62
    4
 10
187.40473493975904
 20
236.85833501228996
  0
LINE
  8
_0-b_
  6
CONTINUOUS
 62
    4
 10
187.40473493975904
 20
236.85833501228996
 11
187.40473493975904
 21
215.75705766208648
  0
TEXT
  8
_0-b_
 62
    3
 10
179.27973493975904
 20
237.35833501228996
 40
6
 41
1
 50
0
  1
10
  0
LINE
  8
_0-b_
  6
CONTINUOUS
 62
    4
 10
187.40473493975904
 20
236.85833501228996
 11
197.40473493975904
 21
236.85833501228996
  0
POINT
  8
_0-b_
 62
    4
 10
197.40473493975904
 20
236.85833501228996
  0
TEXT
  8
_0-b_
 62
    3
 10
189.27973493975904
 20
237.35833501228996
 40
6
 41
1
 50
0
  1
10
  0
LINE
  8
_0-b_
  6
CONTINUOUS
 62
    4
 10
197.40473493975904
 20
236.85833501228996
 11
207.40473493975904
 21
236.85833501228996
  0
POINT
  8
_0-b_
 62
    4
 10
207.40473493975904
 20
236.85833501228996
  0
LINE
  8
_0-b_
  6
CONTINUOUS
 62
    4
 10
207.40473493975904
 20
236.85833501228996
 11
207.40473493975904
 21
215.75705766208648
  0
TEXT
  8
_0-b_
 62
    3
 10
199.27973493975904
 20
237.35833501228996
 40
6
 41
1
 50
0
  1
10
  0
LINE
  8
_0-b_
  6
CONTINUOUS
 62
    4
 10
207.40473493975904
 20
236.85833501228996
 11
217.40473493975904
 21
236.85833501228996
  0
POINT
  8
_0-b_
 62
    4
 10
217.40473493975904
 20
236.85833501228996
  0
TEXT
  8
_0-b_
 62
    3
 10
209.27973493975904
 20
237.35833501228996
 40
6
 41
1
 50
0
  1
10
  0
LINE
  8
_0-b_
  6
CONTINUOUS
 62
    4
 10
217.40473493975904
 20
236.85833501228996
 11
227.40473493975904
 21
236.85833501228996
  0
POINT
  8
_0-b_
 62
    4
 10
227.40473493975904
 20
236.85833501228996
  0
LINE
  8
_0-b_
  6
CONTINUOUS
 62
    4
 10
227.40473493975904
 20
236.85833501228996
 11
227.40473493975904
 21
215.75705766208648
  0
TEXT
  8
_0-b_
 62
    3
 10
219.27973493975904
 20
237.35833501228996
 40
6
 41
1
 50
0
  1
10
  0
LINE
  8
_0-b_
  6
CONTINUOUS
 62
    4
 10
227.40473493975904
 20
236.85833501228996
 11
237.40473493975904
 21
236.85833501228996
  0
POINT
  8
_0-b_
 62
    4
 10
237.40473493975904
 20
236.85833501228996
  0
TEXT
  8
_0-b_
 62
    3
 10
229.27973493975904
 20
237.35833501228996
 40
6
 41
1
 50
0
  1
10
  0
LINE
  8
_0-b_
  6
CONTINUOUS
 62
    4
 10
237.40473493975904
 20
236.85833501228996
 11
247.40473493975904
 21
236.85833501228996
  0
POINT
  8
_0-b_
 62
    4
 10
247.40473493975904
 20
236.85833501228996
  0
LINE
  8
_0-b_
  6
CONTINUOUS
 62
    4
 10
247.40473493975904
 20
236.85833501228996
 11
247.40473493975904
 21
215.75705766208648
  0
TEXT
  8
_0-b_
 62
    3
 10
239.27973493975904
 20
237.35833501228996
 40
6
 41
1
 50
0
  1
10
  0
LINE
  8
_0-b_
  6
CONTINUOUS
 62
    4
 10
247.40473493975904
 20
236.85833501228996
 11
257.40473493975901
 21
236.85833501228996
  0
POINT
  8
_0-b_
 62
    4
 10
257.40473493975901
 20
236.85833501228996
  0
TEXT
  8
_0-b_
 62
    3
 10
249.27973493975904
 20
237.35833501228996
 40
6
 41
1
 50
0
  1
10
  0
LINE
  8
_0-b_
  6
CONTINUOUS
 62
    4
 10
257.40473493975901
 20
236.85833501228996
 11
267.40473493975901
 21
236.85833501228996
  0
POINT
  8
_0-b_
 62
    4
 10
267.40473493975901
 20
236.85833501228996
  0
LINE
  8
_0-b_
  6
CONTINUOUS
 62
    4
 10
267.40473493975901
 20
236.85833501228996
 11
267.40473493975901
 21
215.75705766208648
  0
TEXT
  8
_0-b_
 62
    3
 10
259.27973493975901
 20
237.35833501228996
 40
6
 41
1
 50
0
  1
10
  0
LINE
  8
_0-b_
  6
CONTINUOUS
 62
    4
 10
267.40473493975901
 20
236.85833501228996
 11
277.40473493975901
 21
236.85833501228996
  0
POINT
  8
_0-b_
 62
    4
 10
277.40473493975901
 20
236.85833501228996
  0
TEXT
  8
_0-b_
 62
    3
 10
269.27973493975901
 20
237.35833501228996
 40
6
 41
1
 50
0
  1
10
  0
LINE
  8
_0-b_
  6
CONTINUOUS
 62
    4
 10
277.40473493975901
 20
236.85833501228996
 11
287.40473493975901
 21
236.85833501228996
  0
POINT
  8
_0-b_
 62
    4
 10
287.40473493975901
 20
236.85833501228996
  0
LINE
  8
_0-b_
  6
CONTINUOUS
 62
    4
 10
287.40473493975901
 20
236.85833501228996
 11
287.40473493975901
 21
215.75705766208648
  0
TEXT
  8
_0-b_
 62
    3
 10
279.27973493975901
 20
237.35833501228996
 40
6
 41
1
 50
0
  1
10
  0
LINE
  8
_0-b_
  6
CONTINUOUS
 62
    4
 10
287.40473493975901
 20
236.85833501228996
 11
297.40473493975901
 21
236.85833501228996
  0
POINT
  8
_0-b_
 62
    4
 10
297.40473493975901
 20
236.85833501228996
  0
TEXT
  8
_0-b_
 62
    3
 10
289.27973493975901
 20
237.35833501228996
 40
6
 41
1
 50
0
  1
10
  0
LINE
  8
_0-b_
  6
CONTINUOUS
 62
    4
 10
297.40473493975901
 20
236.85833501228996
 11
307.40473493975901
 21
236.85833501228996
  0
POINT
  8
_0-b_
 62
    4
 10
307.40473493975901
 20
236.85833501228996
  0
LINE
  8
_0-b_
  6
CONTINUOUS
 62
    4
 10
307.40473493975901
 20
236.85833501228996
 11
307.40473493975901
 21
215.75705766208648
  0
TEXT
  8
_0-b_
 62
    3
 10
299.27973493975901
 20
237.35833501228996
 40
6
 41
1
 50
0
  1
10
  0
LINE
  8
_0-b_
  6
CONTINUOUS
 62
    4
 10
307.40473493975901
 20
236.85833501228996
 11
317.40473493975901
 21
236.85833501228996
  0
POINT
  8
_0-b_
 62
    4
 10
317.40473493975901
 20
236.85833501228996
  0
TEXT
  8
_0-b_
 62
    3
 10
309.27973493975901
 20
237.35833501228996
 40
6
 41
1
 50
0
  1
10
  0
LINE
  8
_0-b_
  6
CONTINUOUS
 62
    4
 10
323.02473493975901
 20
236.85833501228996
 11
323.02473493975901
 21
215.75705766208648
  0
LINE
  8
_0-b_
  6
CONTINUOUS
 62
    4
 10
97.404734939759038
 20
236.85833501228996
 11
97.404734939759038
 21
229.82530120481925
  0
LINE
  8
_0-b_
  6
CONTINUOUS
 62
    4
 10
117.40473493975904
 20
236.85833501228996
 11
117.40473493975904
 21
229.82530120481925
  0
LINE
  8
_0-b_
  6
CONTINUOUS
 62
    4
 10
137.40473493975904
 20
236.85833501228996
 11
137.40473493975904
 21
229.82530120481925
  0
LINE
  8
_0-b_
  6
CONTINUOUS
 62
    4
 10
157.40473493975904
 20
236.85833501228996
 11
157.40473493975904
 21
229.82530120481925
  0
LINE
  8
_0-b_
  6
CONTINUOUS
 62
    4
 10
177.40473493975904
 20
236.85833501228996
 11
177.40473493975904
 21
229.82530120481925
  0
LINE
  8
_0-b_
  6
CONTINUOUS
 62
    4
 10
197.40473493975904
 20
236.85833501228996
 11
197.40473493975904
 21
229.82530120481925
  0
LINE
  8
_0-b_
  6
CONTINUOUS
 62
    4
 10
217.40473493975904
 20
236.85833501228996
 11
217.40473493975904
 21
229.82530120481925
  0
LINE
  8
_0-b_
  6
CONTINUOUS
 62
    4
 10
237.40473493975904
 20
236.85833501228996
 11
237.40473493975904
 21
229.82530120481925
  0
LINE
  8
_0-b_
  6
CONTINUOUS
 62
    4
 10
257.40473493975901
 20
236.85833501228996
 11
257.40473493975901
 21
229.82530120481925
  0
LINE
  8
_0-b_
  6
CONTINUOUS
 62
    4
 10
277.40473493975901
 20
236.85833501228996
 11
277.40473493975901
 21
229.82530120481925
  0
LINE
  8
_0-b_
  6
CONTINUOUS
 62
    4
 10
297.40473493975901
 20
236.85833501228996
 11
297.40473493975901
 21
229.82530120481925
  0
LINE
  8
_0-b_
  6
CONTINUOUS
 62
    4
 10
317.40473493975901
 20
236.85833501228996
 11
317.40473493975901
 21
229.82530120481925
  0
LINE
  8
_0-b_
  6
CONTINUOUS
 62
    4
 10
338.02473493975901
 20
247.16918644477576
 11
338.02473493975901
 21
189.81325301204819
  0
LINE
  8
_0-b_
  6
CONTINUOUS
 62
    4
 10
72.404734939759038
 20
247.16918644477576
 11
72.404734939759038
 21
210.30722891566265
  0
LINE
  8
_0-4_
  6
CONTINUOUS
 62
    7
 10
180.2193163607561
 20
165.30296759103862
 11
160.93740827607388
 21
170.61408994077482
  0
LINE
  8
_0-4_
  6
CONTINUOUS
 62
    7
 10
218.78313253012047
 20
154.68072289156626
 11
199.50122444543828
 21
159.99184524130246
  0
LINE
  8
_0-4_
  6
CONTINUOUS
 62
    7
 10
238.7831325301205
 20
154.68072289156626
 11
258.7831325301205
 21
154.68072289156626
  0
LINE
  8
_0-4_
  6
CONTINUOUS
 62
    7
 10
278.7831325301205
 20
154.68072289156626
 11
300.7831325301205
 21
154.68072289156626
  0
LINE
  8
_0-c_
  6
CONTINUOUS
 62
    7
 10
160.93740827607388
 20
170.61408994077482
 11
160.66525964242632
 21
170.20809509697145
  0
ARC
  8
_0-c_
  6
CONTINUOUS
 62
    4
 10
218.78313253012047
 20
154.68072289156626
 40
34.182980550082839
 50
0.0000000000000044
 51
164.59999999999999
  0
POINT
  8
_0-c_
 62
    4
 10
252.96611308020331
 20
154.68072289156626
  0
POINT
  8
_0-c_
 62
    4
 10
185.82747807876166
 20
163.75822249057336
  0
TEXT
  8
_0-c_
 62
    3
 10
215.02096887000357
 20
190.88927671254569
 40
6
 41
1
 50
-7.7000000000000073
  1
164.6ﾟ
  0
LINE
  8
_0-c_
  6
CONTINUOUS
 62
    4
 10
312.22795233507964
 20
154.68072289156626
 11
312.22795233507964
 21
139.68072289156626
  0
POINT
  8
_0-c_
 62
    4
 10
312.22795233507964
 20
154.68072289156626
  0
POINT
  8
_0-c_
 62
    4
 10
312.22795233507964
 20
139.68072289156626
  0
LINE
  8
_0-c_
  6
CONTINUOUS
 62
    4
 10
312.22795233507964
 20
154.68072289156626
 11
301.70928621385872
 21
154.68072289156626
  0
TEXT
  8
_0-c_
 62
    3
 10
311.72795233507964
 20
144.05572289156626
 40
6
 41
1
 50
90
  1
15
  0
LINE
  8
_0-c_
  6
CONTINUOUS
 62
    4
 10
312.22795233507964
 20
139.68072289156626
 11
275.04990828593674
 21
139.68072289156626
  0
LINE
  8
_0-c_
  6
CONTINUOUS
 62
    4
 10
300.7831325301205
 20
122.51794692460972
 11
218.7831325301205
 21
122.51794692460972
  0
POINT
  8
_0-c_
 62
    4
 10
300.7831325301205
 20
122.51794692460972
  0
POINT
  8
_0-c_
 62
    4
 10
218.7831325301205
 20
122.51794692460972
  0
LINE
  8
_0-c_
  6
CONTINUOUS
 62
    4
 10
300.7831325301205
 20
122.51794692460972
 11
300.7831325301205
 21
153.52987635096795
  0
LINE
  8
_0-c_
  6
CONTINUOUS
 62
    4
 10
218.7831325301205
 20
122.51794692460972
 11
218.7831325301205
 21
153.52987635096795
  0
TEXT
  8
_0-c_
 62
    3
 10
256.6581325301205
 20
123.01794692460972
 40
6
 41
1
 50
0
  1
82
  0
LINE
  8
_0-c_
  6
CONTINUOUS
 62
    4
 10
300.7831325301205
 20
131.76711885878674
 11
278.7831325301205
 21
131.76711885878674
  0
POINT
  8
_0-c_
 62
    4
 10
300.7831325301205
 20
131.76711885878674
  0
POINT
  8
_0-c_
 62
    4
 10
278.7831325301205
 20
131.76711885878674
  0
LINE
  8
_0-c_
  6
CONTINUOUS
 62
    4
 10
300.7831325301205
 20
131.76711885878674
 11
300.7831325301205
 21
153.52987635096795
  0
LINE
  8
_0-c_
  6
CONTINUOUS
 62
    4
 10
278.7831325301205
 20
131.76711885878674
 11
278.7831325301205
 21
153.52987635096795
  0
TEXT
  8
_0-c_
 62
    3
 10
286.6581325301205
 20
132.26711885878674
 40
6
 41
1
 50
0
  1
22
  0
LINE
  8
_0-c_
  6
CONTINUOUS
 62
    4
 10
278.7831325301205
 20
131.76711885878674
 11
273.7831325301205
 21
131.76711885878674
  0
POINT
  8
_0-c_
 62
    4
 10
273.7831325301205
 20
131.76711885878674
  0
LINE
  8
_0-c_
  6
CONTINUOUS
 62
    4
 10
273.7831325301205
 20
131.76711885878674
 11
273.7831325301205
 21
153.52987635096795
  0
TEXT
  8
_0-c_
 62
    3
 10
274.7831325301205
 20
132.26711885878674
 40
6
 41
1
 50
0
  1
5
  0
LINE
  8
_0-c_
  6
CONTINUOUS
 62
    4
 10
273.7831325301205
 20
131.76711885878674
 11
263.7831325301205
 21
131.76711885878674
  0
POINT
  8
_0-c_
 62
    4
 10
263.7831325301205
 20
131.76711885878674
  0
LINE
  8
_0-c_
  6
CONTINUOUS
 62
    4
 10
263.7831325301205
 20
131.76711885878674
 11
263.7831325301205
 21
153.52987635096795
  0
TEXT
  8
_0-c_
 62
    3
 10
265.6581325301205
 20
132.26711885878674
 40
6
 41
1
 50
0
  1
10
  0
LINE
  8
_0-c_
  6
CONTINUOUS
 62
    4
 10
263.7831325301205
 20
131.76711885878674
 11
258.7831325301205
 21
131.76711885878674
  0
POINT
  8
_0-c_
 62
    4
 10
258.7831325301205
 20
131.76711885878674
  0
LINE
  8
_0-c_
  6
CONTINUOUS
 62
    4
 10
258.7831325301205
 20
131.76711885878674
 11
258.7831325301205
 21
153.52987635096795
  0
TEXT
  8
_0-c_
 62
    3
 10
259.7831325301205
 20
132.26711885878674
 40
6
 41
1
 50
0
  1
5
  0
LINE
  8
_0-c_
  6
CONTINUOUS
 62
    4
 10
258.7831325301205
 20
131.76711885878674
 11
238.7831325301205
 21
131.76711885878674
  0
POINT
  8
_0-c_
 62
    4
 10
238.7831325301205
 20
131.76711885878674
  0
LINE
  8
_0-c_
  6
CONTINUOUS
 62
    4
 10
238.7831325301205
 20
131.76711885878674
 11
238.7831325301205
 21
153.52987635096795
  0
TEXT
  8
_0-c_
 62
    3
 10
245.6581325301205
 20
132.26711885878674
 40
6
 41
1
 50
0
  1
20
  0
LINE
  8
_0-c_
  6
CONTINUOUS
 62
    4
 10
238.7831325301205
 20
131.76711885878674
 11
233.7831325301205
 21
131.76711885878674
  0
POINT
  8
_0-c_
 62
    4
 10
233.7831325301205
 20
131.76711885878674
  0
LINE
  8
_0-c_
  6
CONTINUOUS
 62
    4
 10
233.7831325301205
 20
131.76711885878674
 11
233.7831325301205
 21
153.52987635096795
  0
TEXT
  8
_0-c_
 62
    3
 10
234.7831325301205
 20
132.26711885878674
 40
6
 41
1
 50
0
  1
5
  0
POINT
  8
_0-c_
 62
    4
 10
223.7831325301205
 20
131.76711885878674
  0
LINE
  8
_0-c_
  6
CONTINUOUS
 62
    4
 10
223.7831325301205
 20
131.76711885878674
 11
223.7831325301205
 21
153.52987635096795
  0
LINE
  8
_0-c_
  6
CONTINUOUS
 62
    4
 10
223.7831325301205
 20
131.76711885878674
 11
218.7831325301205
 21
131.76711885878674
  0
POINT
  8
_0-c_
 62
    4
 10
218.7831325301205
 20
131.76711885878674
  0
LINE
  8
_0-c_
  6
CONTINUOUS
 62
    4
 10
218.7831325301205
 20
131.76711885878674
 11
218.7831325301205
 21
153.52987635096795
  0
TEXT
  8
_0-c_
 62
    3
 10
219.7831325301205
 20
132.26711885878674
 40
6
 41
1
 50
0
  1
5
  0
LINE
  8
_0-c_
  6
CONTINUOUS
 62
    4
 10
211.68619195011797
 20
128.91544261086315
 11
192.40428386543579
 21
134.22656496059935
  0
POINT
  8
_0-c_
 62
    4
 10
211.68619195011797
 20
128.91544261086315
  0
POINT
  8
_0-c_
 62
    4
 10
192.40428386543579
 20
134.22656496059935
  0
LINE
  8
_0-c_
  6
CONTINUOUS
 62
    4
 10
211.68619195011797
 20
128.91544261086315
 11
218.55799517794898
 21
153.86336688936169
  0
LINE
  8
_0-c_
  6
CONTINUOUS
 62
    4
 10
192.40428386543579
 20
134.22656496059935
 11
199.27608709326677
 21
159.17448923909788
  0
TEXT
  8
_0-c_
 62
    3
 10
199.16521782828869
 20
132.88291435499457
 40
6
 41
1
 50
-15.400000000000022
  1
20
  0
LINE
  8
_0-c_
  6
CONTINUOUS
 62
    4
 10
192.40428386543579
 20
134.22656496059935
 11
187.58380684426524
 21
135.55434554803338
  0
POINT
  8
_0-c_
 62
    4
 10
187.58380684426524
 20
135.55434554803338
  0
LINE
  8
_0-c_
  6
CONTINUOUS
 62
    4
 10
187.58380684426524
 20
135.55434554803338
 11
194.45561007209622
 21
160.50226982653191
  0
TEXT
  8
_0-c_
 62
    3
 10
188.68068030724277
 20
135.77083713266364
 40
6
 41
1
 50
-15.400000000000048
  1
5
  0
LINE
  8
_0-c_
  6
CONTINUOUS
 62
    4
 10
187.58380684426524
 20
135.55434554803338
 11
177.94285280192415
 21
138.20990672290148
  0
POINT
  8
_0-c_
 62
    4
 10
177.94285280192415
 20
138.20990672290148
  0
LINE
  8
_0-c_
  6
CONTINUOUS
 62
    4
 10
177.94285280192415
 20
138.20990672290148
 11
184.81465602975513
 21
163.15783100140001
  0
TEXT
  8
_0-c_
 62
    3
 10
179.8833097436065
 20
138.19403670473076
 40
6
 41
1
 50
-15.400000000000023
  1
10
  0
LINE
  8
_0-c_
  6
CONTINUOUS
 62
    4
 10
177.94285280192415
 20
138.20990672290148
 11
173.1223757807536
 21
139.53768731033551
  0
POINT
  8
_0-c_
 62
    4
 10
173.1223757807536
 20
139.53768731033551
  0
LINE
  8
_0-c_
  6
CONTINUOUS
 62
    4
 10
173.1223757807536
 20
139.53768731033551
 11
179.99417900858458
 21
164.48561158883405
  0
TEXT
  8
_0-c_
 62
    3
 10
174.2192492437311
 20
139.75417889496578
 40
6
 41
1
 50
-15.40000000000002
  1
5
  0
LINE
  8
_0-c_
  6
CONTINUOUS
 62
    4
 10
173.1223757807536
 20
139.53768731033551
 11
153.84046769607139
 21
144.84880966007171
  0
POINT
  8
_0-c_
 62
    4
 10
153.84046769607139
 20
144.84880966007171
  0
LINE
  8
_0-c_
  6
CONTINUOUS
 62
    4
 10
153.84046769607139
 20
144.84880966007171
 11
160.71227092390237
 21
169.79673393857024
  0
TEXT
  8
_0-c_
 62
    3
 10
160.60140165892432
 20
143.50515905446693
 40
6
 41
1
 50
-15.400000000000009
  1
20
  0
LINE
  8
_0-c_
  6
CONTINUOUS
 62
    4
 10
153.84046769607139
 20
144.84880966007171
 11
149.01999067490084
 21
146.17659024750574
  0
POINT
  8
_0-c_
 62
    4
 10
149.01999067490084
 20
146.17659024750574
  0
LINE
  8
_0-c_
  6
CONTINUOUS
 62
    4
 10
149.01999067490084
 20
146.17659024750574
 11
155.89179390273182
 21
171.12451452600428
  0
TEXT
  8
_0-c_
 62
    3
 10
150.11686413787834
 20
146.39308183213601
 40
6
 41
1
 50
-15.40000000000002
  1
5
  0
LINE
  8
_0-c_
  6
CONTINUOUS
 62
    4
 10
149.01999067490084
 20
146.17659024750574
 11
137.45084582409152
 21
149.36326365734746
  0
POINT
  8
_0-c_
 62
    4
 10
137.45084582409152
 20
149.36326365734746
  0
LINE
  8
_0-c_
  6
CONTINUOUS
 62
    4
 10
137.45084582409152
 20
149.36326365734746
 11
144.3226490519225
 21
174.31118793584599
  0
TEXT
  8
_0-c_
 62
    3
 10
140.35539817000802
 20
149.08183752168992
 40
6
 41
1
 50
-15.400000000000015
  1
12
  0
LINE
  8
_0-c_
  6
CONTINUOUS
 62
    4
 10
137.45084582409152
 20
149.36326365734746
 11
132.63036880292097
 21
150.69104424478149
  0
POINT
  8
_0-c_
 62
    4
 10
132.63036880292097
 20
150.69104424478149
  0
LINE
  8
_0-c_
  6
CONTINUOUS
 62
    4
 10
132.63036880292097
 20
150.69104424478149
 11
139.50217203075195
 21
175.63896852328003
  0
TEXT
  8
_0-c_
 62
    3
 10
133.7272422658985
 20
150.90753582941176
 40
6
 41
1
 50
-15.399999999999995
  1
5
  0
LINE
  8
_0-4_
  6
CONTINUOUS
 62
    7
 10
139.72730938292347
 20
176.45632452548455
 11
140.56444464179188
 21
160.6671128745389
  0
LINE
  8
_0-4_
  6
CONTINUOUS
 62
    7
 10
140.56444464179188
 20
160.6671128745389
 11
152.13358949260117
 21
157.48043946469721
  0
LINE
  8
_0-4_
  6
CONTINUOUS
 62
    7
 10
152.13358949260117
 20
157.48043946469721
 11
160.93740827607388
 21
170.61408994077482
  0
LINE
  8
_0-4_
  6
CONTINUOUS
 62
    7
 10
180.2193163607561
 20
165.30296759103862
 11
181.05645161962451
 21
149.51375594009292
  0
LINE
  8
_0-4_
  6
CONTINUOUS
 62
    7
 10
181.05645161962448
 20
149.51375594009295
 11
190.6974056619656
 21
146.85819476522482
  0
LINE
  8
_0-4_
  6
CONTINUOUS
 62
    7
 10
190.6974056619656
 20
146.85819476522485
 11
199.50122444543828
 21
159.99184524130243
  0
LINE
  8
_0-4_
  6
CONTINUOUS
 62
    7
 10
233.7831325301205
 20
139.68072289156626
 11
238.7831325301205
 21
154.68072289156626
  0
LINE
  8
_0-4_
  6
CONTINUOUS
 62
    7
 10
258.7831325301205
 20
154.68072289156626
 11
263.7831325301205
 21
139.68072289156626
  0
LINE
  8
_0-4_
  6
CONTINUOUS
 62
    7
 10
263.7831325301205
 20
139.68072289156626
 11
273.7831325301205
 21
139.68072289156626
  0
LINE
  8
_0-4_
  6
CONTINUOUS
 62
    7
 10
273.7831325301205
 20
139.68072289156626
 11
278.7831325301205
 21
154.68072289156626
  0
LINE
  8
_0-4_
  6
DASHED3
 62
    7
 10
278.7831325301205
 20
154.68072289156626
 11
258.7831325301205
 21
154.68072289156626
  0
LINE
  8
_0-4_
  6
DASHED3
 62
    7
 10
199.50122444543828
 20
159.99184524130246
 11
180.2193163607561
 21
165.30296759103862
  0
LINE
  8
_0-4_
  6
DASHED3
 62
    7
 10
160.93740827607388
 20
170.61408994077482
 11
139.72730938292347
 21
176.45632452548455
  0
LINE
  8
_0-0_
  6
CONTINUOUS
 62
    7
 10
72.462706429843166
 20
260.89696589446157
 11
192.46270642984319
 21
260.89696589446157
  0
LINE
  8
_0-0_
  6
CONTINUOUS
 62
    7
 10
72.462706429843166
 20
260.89696589446157
 11
192.46270642984319
 21
140.89696589446157
  0
LINE
  8
_0-0_
  6
CONTINUOUS
 62
    7
 10
192.46270642984319
 20
260.89696589446157
 11
247.46270642984319
 21
260.89696589446157
  0
LINE
  8
_0-0_
  6
CONTINUOUS
 62
    7
 10
247.46270642984319
 20
260.89696589446157
 11
367.46270642984314
 21
140.89696589446157
  0
LINE
  8
_0-0_
  6
CONTINUOUS
 62
    7
 10
192.46270642984319
 20
20.896965894461573
 11
72.462706429843166
 21
20.896965894461573
  0
LINE
  8
_0-0_
  6
CONTINUOUS
 62
    7
 10
192.46270642984319
 20
140.89696589446157
 11
72.462706429843166
 21
20.896965894461573
  0
LINE
  8
_0-0_
  6
CONTINUOUS
 62
    7
 10
367.46270642984314
 20
140.89696589446157
 11
247.46270642984319
 21
20.896965894461573
  0
LINE
  8
_0-0_
  6
CONTINUOUS
 62
    7
 10
72.462706429843166
 20
280.89696589446157
 11
247.46270642984319
 21
280.89696589446157
  0
LINE
  8
_0-0_
  6
CONTINUOUS
 62
    7
 10
247.46270642984319
 20
0.896965894461573
 11
72.462706429843166
 21
0.896965894461573
  0
LINE
  8
_0-0_
  6
CONTINUOUS
 62
    7
 10
192.46270642984319
 20
20.896965894461573
 11
247.46270642984319
 21
20.896965894461573
  0
LINE
  8
_0-0_
  6
CONTINUOUS
 62
    7
 10
247.46270642984319
 20
0.896965894461573
 11
247.46270642984319
 21
20.896965894461573
  0
LINE
  8
_0-0_
  6
CONTINUOUS
 62
    7
 10
72.462706429843166
 20
20.896965894461573
 11
72.462706429843166
 21
0.896965894461573
  0
LINE
  8
_0-0_
  6
CONTINUOUS
 62
    7
 10
72.462706429843166
 20
280.89696589446157
 11
72.462706429843166
 21
260.89696589446157
  0
LINE
  8
_0-0_
  6
CONTINUOUS
 62
    7
 10
247.46270642984319
 20
280.89696589446157
 11
247.46270642984319
 21
260.89696589446157
  0
LINE
  8
_0-0_
  6
DASHED3
 62
    7
 10
72.462706429843166
 20
270.89696589446157
 11
247.46270642984319
 21
270.89696589446157
  0
LINE
  8
_0-0_
  6
DASHED3
 62
    7
 10
72.462706429843166
 20
10.896965894461573
 11
247.46270642984319
 21
10.896965894461573
  0
LINE
  8
_0-0_
  6
DASHED3
 62
    7
 10
367.46270642984314
 20
140.89696589446157
 11
247.46270642984319
 21
140.89696589446157
  0
LINE
  8
_0-0_
  6
DASHED3
 62
    7
 10
192.46270642984319
 20
140.89696589446157
 11
247.46270642984319
 21
140.89696589446157
  0
POINT
  8
_0-8_
 62
    4
 10
247.46270642984319
 20
290.21021890650979
  0
POINT
  8
_0-8_
 62
    4
 10
247.46270642984319
 20
290.21021890650979
  0
POINT
  8
_0-8_
 62
    4
 10
367.46270642984314
 20
290.21021890650979
  0
LINE
  8
_0-8_
  6
CONTINUOUS
 62
    4
 10
72.462706429843166
 20
290.21021890650979
 11
247.46270642984319
 21
290.21021890650979
  0
POINT
  8
_0-8_
 62
    4
 10
72.462706429843166
 20
290.21021890650979
  0
POINT
  8
_0-8_
 62
    4
 10
247.46270642984319
 20
290.21021890650979
  0
LINE
  8
_0-8_
  6
CONTINUOUS
 62
    4
 10
72.462706429843166
 20
290.21021890650979
 11
72.462706429843166
 21
281.93473033013066
  0
TEXT
  8
_0-8_
 62
    3
 10
155.21270642984317
 20
290.71021890650979
 40
6
 41
1
 50
0
  1
175
  0
LINE
  8
_0-8_
  6
CONTINUOUS
 62
    4
 10
247.46270642984319
 20
290.21021890650979
 11
367.46270642984314
 21
290.21021890650979
  0
POINT
  8
_0-8_
 62
    4
 10
247.46270642984319
 20
290.21021890650979
  0
POINT
  8
_0-8_
 62
    4
 10
367.46270642984314
 20
290.21021890650979
  0
LINE
  8
_0-8_
  6
CONTINUOUS
 62
    4
 10
367.46270642984314
 20
290.21021890650979
 11
367.46270642984314
 21
145.60260710518091
  0
TEXT
  8
_0-8_
 62
    3
 10
302.71270642984314
 20
290.71021890650979
 40
6
 41
1
 50
0
  1
120
  0
LINE
  8
_0-8_
  6
CONTINUOUS
 62
    4
 10
247.46270642984319
 20
290.21021890650979
 11
247.46270642984319
 21
281.93473033013066
  0
LINE
  8
_0-8_
  6
CONTINUOUS
 62
    4
 10
247.46270642984319
 20
290.21021890650979
 11
247.46270642984319
 21
281.93473033013066
  0
LINE
  8
_0-8_
  6
CONTINUOUS
 62
    4
 10
54.745201392648539
 20
280.89696589446157
 11
54.745201392648539
 21
260.89696589446157
  0
POINT
  8
_0-8_
 62
    4
 10
54.745201392648539
 20
280.89696589446157
  0
POINT
  8
_0-8_
 62
    4
 10
54.745201392648539
 20
260.89696589446157
  0
LINE
  8
_0-8_
  6
CONTINUOUS
 62
    4
 10
54.745201392648539
 20
280.89696589446157
 11
71.332010276557412
 21
280.89696589446157
  0
LINE
  8
_0-8_
  6
CONTINUOUS
 62
    4
 10
54.745201392648539
 20
260.89696589446157
 11
71.332010276557412
 21
260.89696589446157
  0
TEXT
  8
_0-8_
 62
    3
 10
54.245201392648539
 20
267.77196589446157
 40
6
 41
1
 50
90
  1
20
  0
LINE
  8
_0-8_
  6
CONTINUOUS
 62
    4
 10
54.745201392648539
 20
260.89696589446157
 11
54.745201392648539
 21
140.89696589446157
  0
POINT
  8
_0-8_
 62
    4
 10
54.745201392648539
 20
140.89696589446157
  0
TEXT
  8
_0-8_
 62
    3
 10
54.245201392648539
 20
196.14696589446157
 40
6
 41
1
 50
90
  1
120
  0
LINE
  8
_0-8_
  6
CONTINUOUS
 62
    4
 10
54.745201392648539
 20
140.89696589446157
 11
54.745201392648511
 21
20.896965894461545
  0
POINT
  8
_0-8_
 62
    4
 10
54.745201392648511
 20
20.896965894461545
  0
LINE
  8
_0-8_
  6
CONTINUOUS
 62
    4
 10
54.745201392648511
 20
20.896965894461545
 11
71.332010276557384
 21
20.896965894461545
  0
TEXT
  8
_0-8_
 62
    3
 10
54.245201392648539
 20
76.146965894461573
 40
6
 41
1
 50
90
  1
120
  0
LINE
  8
_0-8_
  6
CONTINUOUS
 62
    4
 10
54.745201392648511
 20
20.896965894461545
 11
54.745201392648511
 21
0.8969658944615446
  0
POINT
  8
_0-8_
 62
    4
 10
54.745201392648511
 20
0.8969658944615446
  0
LINE
  8
_0-8_
  6
CONTINUOUS
 62
    4
 10
54.745201392648511
 20
0.8969658944615446
 11
71.332010276557384
 21
0.8969658944615446
  0
TEXT
  8
_0-8_
 62
    3
 10
54.245201392648511
 20
7.7719658944615446
 40
6
 41
1
 50
90
  1
20
  0
LINE
  8
_0-8_
  6
CONTINUOUS
 62
    4
 10
54.745201392648539
 20
140.89696589446157
 11
188.62444452705591
 21
140.89696589446157
  0
LINE
  8
_0-8_
  6
CONTINUOUS
 62
    4
 10
192.46270642984319
 20
156.56035143344462
 11
367.46270642984314
 21
156.56035143344462
  0
POINT
  8
_0-8_
 62
    4
 10
192.46270642984319
 20
156.56035143344462
  0
POINT
  8
_0-8_
 62
    4
 10
367.46270642984314
 20
156.56035143344462
  0
LINE
  8
_0-8_
  6
CONTINUOUS
 62
    4
 10
192.46270642984319
 20
156.56035143344462
 11
192.46270642984319
 21
144.71263080208115
  0
LINE
  8
_0-8_
  6
CONTINUOUS
 62
    4
 10
367.46270642984314
 20
156.56035143344462
 11
367.46270642984314
 21
144.71263080208115
  0
TEXT
  8
_0-8_
 62
    3
 10
275.21270642984319
 20
157.06035143344462
 40
6
 41
1
 50
0
  1
175
  0
LINE
  8
_0-8_
  6
CONTINUOUS
 62
    4
 10
258.9209202731459
 20
280.89696589446157
 11
258.9209202731459
 21
270.89696589446157
  0
POINT
  8
_0-8_
 62
    4
 10
258.9209202731459
 20
280.89696589446157
  0
POINT
  8
_0-8_
 62
    4
 10
258.9209202731459
 20
270.89696589446157
  0
LINE
  8
_0-8_
  6
CONTINUOUS
 62
    4
 10
258.9209202731459
 20
280.89696589446157
 11
248.65289572596424
 21
280.89696589446157
  0
LINE
  8
_0-8_
  6
CONTINUOUS
 62
    4
 10
258.9209202731459
 20
270.89696589446157
 11
248.65289572596424
 21
270.89696589446157
  0
TEXT
  8
_0-8_
 62
    3
 10
258.4209202731459
 20
272.77196589446157
 40
6
 41
1
 50
90
  1
10
  0
LINE
  8
_0-8_
  6
CONTINUOUS
 62
    4
 10
258.9209202731459
 20
270.89696589446157
 11
258.9209202731459
 21
260.89696589446157
  0
POINT
  8
_0-8_
 62
    4
 10
258.9209202731459
 20
260.89696589446157
  0
LINE
  8
_0-8_
  6
CONTINUOUS
 62
    4
 10
258.9209202731459
 20
260.89696589446157
 11
248.65289572596424
 21
260.89696589446157
  0
TEXT
  8
_0-8_
 62
    3
 10
258.4209202731459
 20
262.77196589446157
 40
6
 41
1
 50
90
  1
10
  0
LINE
  8
_0-8_
  6
CONTINUOUS
 62
    4
 10
258.9209202731459
 20
20.896965894461573
 11
258.9209202731459
 21
10.896965894461573
  0
POINT
  8
_0-8_
 62
    4
 10
258.9209202731459
 20
20.896965894461573
  0
POINT
  8
_0-8_
 62
    4
 10
258.9209202731459
 20
10.896965894461573
  0
LINE
  8
_0-8_
  6
CONTINUOUS
 62
    4
 10
258.9209202731459
 20
20.896965894461573
 11
248.65289572596424
 21
20.896965894461573
  0
LINE
  8
_0-8_
  6
CONTINUOUS
 62
    4
 10
258.9209202731459
 20
10.896965894461573
 11
248.65289572596424
 21
10.896965894461573
  0
TEXT
  8
_0-8_
 62
    3
 10
258.4209202731459
 20
12.771965894461573
 40
6
 41
1
 50
90
  1
10
  0
LINE
  8
_0-8_
  6
CONTINUOUS
 62
    4
 10
258.9209202731459
 20
10.896965894461573
 11
258.9209202731459
 21
0.896965894461573
  0
POINT
  8
_0-8_
 62
    4
 10
258.9209202731459
 20
0.896965894461573
  0
LINE
  8
_0-8_
  6
CONTINUOUS
 62
    4
 10
258.9209202731459
 20
0.896965894461573
 11
248.65289572596424
 21
0.896965894461573
  0
TEXT
  8
_0-8_
 62
    3
 10
258.4209202731459
 20
2.771965894461573
 40
6
 41
1
 50
90
  1
10
  0
LINE
  8
_0-1_
  6
PHANTOM2
 62
    5
 10
82.817258725624157
 20
222.86939767136676
 11
257.81725872562413
 21
222.86939767136676
  0
LINE
  8
_0-1_
  6
PHANTOM2
 62
    5
 10
82.817258725624157
 20
144.32939767136673
 11
257.81725872562413
 21
144.32939767136673
  0
LINE
  8
_0-1_
  6
PHANTOM2
 62
    5
 10
82.817258725624157
 20
65.789397671366729
 11
257.81725872562413
 21
65.789397671366729
  0
LINE
  8
_0-9_
  6
CONTINUOUS
 62
    4
 10
9.6144578313252964
 20
262.13939767136674
 11
9.6144578313252964
 21
144.32939767136673
  0
POINT
  8
_0-9_
 62
    4
 10
9.6144578313252964
 20
262.13939767136674
  0
POINT
  8
_0-9_
 62
    4
 10
9.6144578313252964
 20
144.32939767136673
  0
LINE
  8
_0-9_
  6
CONTINUOUS
 62
    4
 10
9.6144578313252964
 20
262.13939767136674
 11
23.277108433734952
 21
262.13939767136674
  0
LINE
  8
_0-9_
  6
CONTINUOUS
 62
    4
 10
9.6144578313252964
 20
144.32939767136673
 11
23.277108433734952
 21
144.32939767136673
  0
TEXT
  8
_0-9_
 62
    3
 10
9.1144578313252964
 20
193.60939767136674
 40
6
 41
1
 50
90
  1
117.81
  0
LINE
  8
_0-9_
  6
CONTINUOUS
 62
    4
 10
20.02409638554218
 20
144.32939767136673
 11
20.02409638554218
 21
222.86939767136676
  0
POINT
  8
_0-9_
 62
    4
 10
20.02409638554218
 20
144.32939767136673
  0
POINT
  8
_0-9_
 62
    4
 10
20.02409638554218
 20
222.86939767136676
  0
LINE
  8
_0-9_
  6
CONTINUOUS
 62
    4
 10
20.02409638554218
 20
144.32939767136673
 11
81.831325301204828
 21
144.32939767136673
  0
LINE
  8
_0-9_
  6
CONTINUOUS
 62
    4
 10
20.02409638554218
 20
222.86939767136676
 11
81.831325301204828
 21
222.86939767136676
  0
TEXT
  8
_0-9_
 62
    3
 10
19.52409638554218
 20
175.59939767136675
 40
6
 41
1
 50
90
  1
78.54
  0
LINE
  8
_0-9_
  6
CONTINUOUS
 62
    4
 10
20.02409638554218
 20
144.32939767136673
 11
20.02409638554218
 21
65.789397671366729
  0
POINT
  8
_0-9_
 62
    4
 10
20.02409638554218
 20
144.32939767136673
  0
POINT
  8
_0-9_
 62
    4
 10
20.02409638554218
 20
65.789397671366729
  0
LINE
  8
_0-9_
  6
CONTINUOUS
 62
    4
 10
20.02409638554218
 20
144.32939767136673
 11
81.831325301204828
 21
144.32939767136673
  0
LINE
  8
_0-9_
  6
CONTINUOUS
 62
    4
 10
20.02409638554218
 20
65.789397671366729
 11
81.831325301204828
 21
65.789397671366729
  0
TEXT
  8
_0-9_
 62
    3
 10
19.52409638554218
 20
97.059397671366725
 40
6
 41
1
 50
90
  1
78.54
  0
LINE
  8
_0-1_
  6
CONTINUOUS
 62
    7
 10
349.86545149670849
 20
262.13939767136674
 11
349.86545149670849
 21
46.519397671366733
  0
LINE
  8
_0-1_
  6
CONTINUOUS
 62
    7
 10
359.86545149670849
 20
262.13939767136674
 11
359.86545149670849
 21
46.519397671366733
  0
LINE
  8
_0-1_
  6
CONTINUOUS
 62
    7
 10
374.75701776176874
 20
262.13939767136674
 11
374.75701776176874
 21
46.519397671366733
  0
LINE
  8
_0-1_
  6
CONTINUOUS
 62
    7
 10
384.75701776176874
 20
262.13939767136674
 11
384.75701776176874
 21
46.519397671366733
  0
LINE
  8
_0-1_
  6
CONTINUOUS
 62
    7
 10
349.86545149670849
 20
46.519397671366733
 11
359.86545149670849
 21
46.519397671366733
  0
LINE
  8
_0-1_
  6
CONTINUOUS
 62
    7
 10
374.75701776176874
 20
46.519397671366733
 11
384.75701776176874
 21
46.519397671366733
  0
LINE
  8
_0-9_
  6
CONTINUOUS
 62
    4
 10
337.84337349397589
 20
262.13939767136674
 11
337.84337349397589
 21
46.519397671366733
  0
POINT
  8
_0-9_
 62
    4
 10
337.84337349397589
 20
262.13939767136674
  0
POINT
  8
_0-9_
 62
    4
 10
337.84337349397589
 20
46.519397671366733
  0
LINE
  8
_0-9_
  6
CONTINUOUS
 62
    4
 10
337.84337349397589
 20
262.13939767136674
 11
346.95180722891564
 21
262.13939767136674
  0
LINE
  8
_0-9_
  6
CONTINUOUS
 62
    4
 10
337.84337349397589
 20
46.519397671366733
 11
346.95180722891564
 21
46.519397671366733
  0
TEXT
  8
_0-9_
 62
    3
 10
337.34337349397589
 20
144.70439767136673
 40
6
 41
1
 50
90
  1
215.62
  0
LINE
  8
_0-1_
  6
DASHED1
 62
    7
 10
97.817258725624157
 20
262.13939767136674
 11
97.817258725624157
 21
46.519397671366733
  0
LINE
  8
_0-1_
  6
DASHED1
 62
    7
 10
87.817258725624157
 20
262.13939767136674
 11
87.817258725624157
 21
46.519397671366733
  0
LINE
  8
_0-1_
  6
DASHED1
 62
    7
 10
247.81725872562416
 20
262.13939767136674
 11
247.81725872562416
 21
46.519397671366733
  0
LINE
  8
_0-1_
  6
DASHED1
 62
    7
 10
87.817258725624157
 20
46.519397671366733
 11
97.817258725624157
 21
46.519397671366733
  0
LINE
  8
_0-1_
  6
DASHED1
 62
    7
 10
247.81725872562416
 20
46.519397671366733
 11
257.81725872562413
 21
46.519397671366733
  0
LINE
  8
_0-4_
  6
CONTINUOUS
 62
    7
 10
223.7831325301205
 20
154.68072289156626
 11
231.2831325301205
 21
139.68072289156626
  0
LINE
  8
_0-4_
  6
DASHED3
 62
    7
 10
238.7831325301205
 20
154.68072289156626
 11
223.7831325301205
 21
154.68072289156626
  0
LINE
  8
_0-4_
  6
CONTINUOUS
 62
    7
 10
223.7831325301205
 20
154.68072289156626
 11
218.78313253012047
 21
154.68072289156626
  0
LINE
  8
_0-4_
  6
CONTINUOUS
 62
    7
 10
231.2831325301205
 20
139.68072289156626
 11
233.7831325301205
 21
139.68072289156626
  0
LINE
  8
_0-c_
  6
CONTINUOUS
 62
    4
 10
223.7831325301205
 20
131.76711885878674
 11
231.2831325301205
 21
131.76711885878674
  0
POINT
  8
_0-c_
 62
    4
 10
223.7831325301205
 20
131.76711885878674
  0
POINT
  8
_0-c_
 62
    4
 10
231.2831325301205
 20
131.76711885878674
  0
LINE
  8
_0-c_
  6
CONTINUOUS
 62
    4
 10
223.7831325301205
 20
131.76711885878674
 11
223.7831325301205
 21
153.52987635096795
  0
LINE
  8
_0-c_
  6
CONTINUOUS
 62
    4
 10
231.2831325301205
 20
131.76711885878674
 11
231.2831325301205
 21
153.52987635096795
  0
TEXT
  8
_0-c_
 62
    3
 10
222.98571946649474
 20
124.727553693033
 40
6
 41
1
 50
0
  1
7.5
  0
LINE
  8
_0-2_
  6
CONTINUOUS
 62
    7
 10
231.50222415672263
 20
263.86341454179114
 11
212.75222415672266
 21
250.24074214169065
  0
LINE
  8
_0-2_
  6
CONTINUOUS
 62
    7
 10
212.75222415672266
 20
250.24074214169065
 11
205.59036144578317
 21
228.1987951807229
  0
LINE
  8
_0-2_
  6
CONTINUOUS
 62
    7
 10
205.59036144578317
 20
228.1987951807229
 11
212.75222415672263
 21
206.15684821975515
  0
LINE
  8
_0-2_
  6
CONTINUOUS
 62
    7
 10
212.75222415672263
 20
206.15684821975515
 11
231.50222415672263
 21
192.53417581965465
  0
LINE
  8
_0-2_
  6
CONTINUOUS
 62
    7
 10
231.50222415672263
 20
192.53417581965465
 11
254.67849873484369
 21
192.53417581965465
  0
LINE
  8
_0-2_
  6
CONTINUOUS
 62
    7
 10
254.67849873484369
 20
192.53417581965465
 11
273.42849873484369
 21
206.15684821975515
  0
LINE
  8
_0-2_
  6
CONTINUOUS
 62
    7
 10
273.42849873484369
 20
206.15684821975515
 11
280.59036144578317
 21
228.1987951807229
  0
LINE
  8
_0-2_
  6
CONTINUOUS
 62
    7
 10
280.59036144578317
 20
228.1987951807229
 11
273.42849873484369
 21
250.24074214169065
  0
LINE
  8
_0-2_
  6
CONTINUOUS
 62
    7
 10
273.42849873484369
 20
250.24074214169065
 11
254.67849873484369
 21
263.86341454179114
  0
LINE
  8
_0-2_
  6
CONTINUOUS
 62
    7
 10
254.67849873484369
 20
263.86341454179114
 11
231.50222415672269
 21
263.86341454179114
  0
LINE
  8
_0-2_
  6
DASHED3
 62
    7
 10
352.58276156645729
 20
228.1987951807229
 11
297.32530120481931
 21
228.1987951807229
  0
LINE
  8
_0-2_
  6
CONTINUOUS
 62
    7
 10
372.32530120481931
 20
228.1987951807229
 11
365.16343849387977
 21
250.24074214169065
  0
LINE
  8
_0-2_
  6
CONTINUOUS
 62
    7
 10
365.16343849387977
 20
250.24074214169065
 11
346.41343849387977
 21
263.86341454179114
  0
LINE
  8
_0-2_
  6
CONTINUOUS
 62
    7
 10
346.41343849387977
 20
263.86341454179114
 11
323.2371639157588
 21
263.86341454179114
  0
LINE
  8
_0-2_
  6
CONTINUOUS
 62
    7
 10
323.23716391575874
 20
263.86341454179114
 11
304.48716391575874
 21
250.24074214169065
  0
LINE
  8
_0-2_
  6
CONTINUOUS
 62
    7
 10
304.48716391575874
 20
250.24074214169065
 11
297.32530120481931
 21
228.1987951807229
  0
LINE
  8
_0-2_
  6
CONTINUOUS
 62
    7
 10
297.32530120481931
 20
228.1987951807229
 11
372.32530120481931
 21
228.1987951807229
  0
LINE
  8
_0-2_
  6
CONTINUOUS
 62
    7
 10
166.01584813243403
 20
263.86341454179114
 11
142.83957355431306
 21
263.86341454179114
  0
LINE
  8
_0-2_
  6
CONTINUOUS
 62
    7
 10
124.08957355431301
 20
250.24074214169065
 11
116.92771084337352
 21
228.1987951807229
  0
LINE
  8
_0-2_
  6
CONTINUOUS
 62
    7
 10
116.92771084337352
 20
228.1987951807229
 11
124.08957355431301
 21
206.15684821975515
  0
LINE
  8
_0-2_
  6
CONTINUOUS
 62
    7
 10
124.08957355431301
 20
206.15684821975515
 11
142.83957355431301
 21
192.53417581965465
  0
LINE
  8
_0-2_
  6
CONTINUOUS
 62
    7
 10
142.83957355431301
 20
192.53417581965465
 11
166.01584813243403
 21
192.53417581965465
  0
LINE
  8
_0-2_
  6
CONTINUOUS
 62
    7
 10
166.01584813243403
 20
192.53417581965465
 11
184.76584813243403
 21
206.15684821975515
  0
LINE
  8
_0-2_
  6
CONTINUOUS
 62
    7
 10
184.76584813243403
 20
206.15684821975515
 11
191.92771084337352
 21
228.1987951807229
  0
LINE
  8
_0-2_
  6
CONTINUOUS
 62
    7
 10
191.92771084337352
 20
228.1987951807229
 11
184.76584813243403
 21
250.24074214169065
  0
LINE
  8
_0-2_
  6
CONTINUOUS
 62
    7
 10
184.76584813243403
 20
250.24074214169065
 11
166.01584813243403
 21
263.86341454179114
  0
LINE
  8
_0-2_
  6
CONTINUOUS
 62
    7
 10
142.83957355431306
 20
263.86341454179114
 11
124.08957355431301
 21
250.24074214169065
  0
LINE
  8
_0-2_
  6
DASHED3
 62
    7
 10
191.92771084337352
 20
228.1987951807229
 11
116.92771084337352
 21
228.1987951807229
  0
POINT
  8
_0-a_
 62
    4
 10
297.32530120481931
 20
287.07831325301203
  0
LINE
  8
_0-a_
  6
CONTINUOUS
 62
    4
 10
297.32530120481931
 20
287.07831325301203
 11
297.32530120481931
 21
231.12650602409639
  0
LINE
  8
_0-a_
  6
CONTINUOUS
 62
    4
 10
297.32530120481931
 20
287.07831325301203
 11
372.32530120481931
 21
287.07831325301203
  0
POINT
  8
_0-a_
 62
    4
 10
372.32530120481931
 20
287.07831325301203
  0
LINE
  8
_0-a_
  6
CONTINUOUS
 62
    4
 10
372.32530120481931
 20
287.07831325301203
 11
372.32530120481931
 21
231.12650602409639
  0
TEXT
  8
_0-a_
 62
    3
 10
331.70030120481931
 20
287.57831325301203
 40
6
 41
1
 50
0
  1
75
  0
LINE
  8
_0-a_
  6
CONTINUOUS
 62
    4
 10
365.16343849387977
 20
250.24074214169065
 11
334.82530120481931
 21
228.1987951807229
  0
LINE
  8
_0-a_
  6
CONTINUOUS
 62
    4
 10
346.41343849387982
 20
263.86341454179114
 11
334.82530120481931
 21
228.1987951807229
  0
LINE
  8
_0-a_
  6
CONTINUOUS
 62
    4
 10
323.2371639157588
 20
271.95953177257525
 11
346.41343849387982
 21
271.95953177257525
  0
POINT
  8
_0-a_
 62
    4
 10
323.2371639157588
 20
271.95953177257525
  0
POINT
  8
_0-a_
 62
    4
 10
346.41343849387982
 20
271.95953177257525
  0
LINE
  8
_0-a_
  6
CONTINUOUS
 62
    4
 10
323.2371639157588
 20
271.95953177257525
 11
323.2371639157588
 21
264.26893258653342
  0
LINE
  8
_0-a_
  6
CONTINUOUS
 62
    4
 10
346.41343849387982
 20
271.95953177257525
 11
346.41343849387982
 21
264.26893258653342
  0
TEXT
  8
_0-a_
 62
    3
 10
325.20030120481931
 20
272.45953177257525
 40
6
 41
1
 50
0
  1
23.176
  0
LINE
  8
_0-a_
  6
CONTINUOUS
 62
    4
 10
334.82530120481931
 20
219.10711608977715
 11
372.32530120481931
 21
219.10711608977715
  0
POINT
  8
_0-a_
 62
    4
 10
334.82530120481931
 20
219.10711608977715
  0
POINT
  8
_0-a_
 62
    4
 10
372.32530120481931
 20
219.10711608977715
  0
LINE
  8
_0-a_
  6
CONTINUOUS
 62
    4
 10
334.82530120481931
 20
219.10711608977715
 11
334.82530120481931
 21
227.8613087802716
  0
LINE
  8
_0-a_
  6
CONTINUOUS
 62
    4
 10
372.32530120481931
 20
219.10711608977715
 11
372.32530120481931
 21
227.8613087802716
  0
TEXT
  8
_0-a_
 62
    3
 10
347.20030120481931
 20
219.60711608977715
 40
6
 41
1
 50
0
  1
37.5
  0
ARC
  8
_0-a_
  6
CONTINUOUS
 62
    4
 10
334.82530120481931
 20
228.1987951807229
 40
48.124501157706128
 50
0
 51
36
  0
POINT
  8
_0-a_
 62
    4
 10
382.94980236252542
 20
228.1987951807229
  0
POINT
  8
_0-a_
 62
    4
 10
373.75884048722037
 20
256.48566723515461
  0
LINE
  8
_0-a_
  6
CONTINUOUS
 62
    4
 10
375.48993765860644
 20
228.1987951807229
 11
382.94980236252542
 21
228.1987951807229
  0
LINE
  8
_0-a_
  6
CONTINUOUS
 62
    4
 10
367.72368316601217
 20
252.10086877809391
 11
373.75884048722037
 21
256.48566723515461
  0
TEXT
  8
_0-a_
 62
    3
 10
379.82544626667209
 20
246.5969174356288
 40
6
 41
1
 50
-72.000000000000014
  1
36ﾟ
  0
LINE
  8
_0-a_
  6
CONTINUOUS
 62
    4
 10
205.5903614457832
 20
287.07831325301203
 11
280.59036144578317
 21
287.07831325301203
  0
POINT
  8
_0-a_
 62
    4
 10
205.5903614457832
 20
287.07831325301203
  0
POINT
  8
_0-a_
 62
    4
 10
280.59036144578317
 20
287.07831325301203
  0
LINE
  8
_0-a_
  6
CONTINUOUS
 62
    4
 10
205.5903614457832
 20
287.07831325301203
 11
205.5903614457832
 21
231.12650602409639
  0
LINE
  8
_0-a_
  6
CONTINUOUS
 62
    4
 10
280.59036144578317
 20
287.07831325301203
 11
280.59036144578317
 21
231.12650602409639
  0
TEXT
  8
_0-a_
 62
    3
 10
239.9653614457832
 20
287.57831325301203
 40
6
 41
1
 50
0
  1
75
  0
LINE
  8
_0-a_
  6
CONTINUOUS
 62
    4
 10
231.50222415672272
 20
271.78915662650604
 11
254.67849873484371
 21
271.78915662650604
  0
POINT
  8
_0-a_
 62
    4
 10
231.50222415672272
 20
271.78915662650604
  0
POINT
  8
_0-a_
 62
    4
 10
254.67849873484371
 20
271.78915662650604
  0
LINE
  8
_0-a_
  6
CONTINUOUS
 62
    4
 10
231.50222415672272
 20
271.78915662650604
 11
231.50222415672272
 21
265.2831325301205
  0
LINE
  8
_0-a_
  6
CONTINUOUS
 62
    4
 10
254.67849873484371
 20
271.78915662650604
 11
254.67849873484371
 21
265.2831325301205
  0
TEXT
  8
_0-a_
 62
    3
 10
233.46536144578323
 20
272.28915662650604
 40
6
 41
1
 50
0
  1
23.176
  0
LINE
  8
_0-a_
  6
CONTINUOUS
 62
    4
 10
254.67849873484371
 20
263.86341454179114
 11
231.50222415672266
 21
192.53417581965465
  0
LINE
  8
_0-a_
  6
CONTINUOUS
 62
    4
 10
273.42849873484374
 20
250.24074214169065
 11
243.09036144578317
 21
228.1987951807229
  0
ARC
  8
_0-a_
  6
CONTINUOUS
 62
    4
 10
243.09036144578317
 20
228.1987951807229
 40
50.748030573163376
 50
0
 51
36
  0
POINT
  8
_0-a_
 62
    4
 10
293.83839201894659
 20
228.1987951807229
  0
POINT
  8
_0-a_
 62
    4
 10
284.14638061053176
 20
258.02773913451585
  0
LINE
  8
_0-a_
  6
CONTINUOUS
 62
    4
 10
274.15944570537238
 20
250.77180620149636
 11
284.14638061053176
 21
258.02773913451585
  0
LINE
  8
_0-a_
  6
CONTINUOUS
 62
    4
 10
281.44062998983895
 20
228.1987951807229
 11
293.83839201894659
 21
228.1987951807229
  0
TEXT
  8
_0-a_
 62
    3
 10
291.4132115179732
 20
246.84144064720527
 40
6
 41
1
 50
-72.000000000000014
  1
36ﾟ
  0
LINE
  8
_0-a_
  6
CONTINUOUS
 62
    4
 10
243.09036144578317
 20
214.53614457831327
 11
280.59036144578317
 21
214.53614457831327
  0
POINT
  8
_0-a_
 62
    4
 10
243.09036144578317
 20
214.53614457831327
  0
POINT
  8
_0-a_
 62
    4
 10
280.59036144578317
 20
214.53614457831327
  0
LINE
  8
_0-a_
  6
CONTINUOUS
 62
    4
 10
243.09036144578317
 20
214.53614457831327
 11
243.09036144578317
 21
226.24698795180723
  0
LINE
  8
_0-a_
  6
CONTINUOUS
 62
    4
 10
280.59036144578317
 20
214.53614457831327
 11
280.59036144578317
 21
226.24698795180723
  0
TEXT
  8
_0-a_
 62
    3
 10
255.46536144578317
 20
215.03614457831327
 40
6
 41
1
 50
0
  1
37.5
  0
LINE
  8
_0-a_
  6
CONTINUOUS
 62
    4
 10
102.17418398525842
 20
287.07831325301203
 11
31.380032882211481
 21
287.07831325301203
  0
POINT
  8
_0-a_
 62
    4
 10
102.17418398525842
 20
287.07831325301203
  0
POINT
  8
_0-a_
 62
    4
 10
31.380032882211481
 20
287.07831325301203
  0
LINE
  8
_0-a_
  6
CONTINUOUS
 62
    4
 10
102.17418398525842
 20
287.07831325301203
 11
102.17418398525842
 21
231.12650602409639
  0
LINE
  8
_0-a_
  6
CONTINUOUS
 62
    4
 10
31.380032882211481
 20
287.07831325301203
 11
31.380032882211481
 21
231.12650602409639
  0
TEXT
  8
_0-a_
 62
    3
 10
57.152108433734952
 20
287.57831325301203
 40
6
 41
1
 50
0
  1
70.794
  0
LINE
  8
_0-a_
  6
CONTINUOUS
 62
    4
 10
77.715406330329643
 20
271.78915662650604
 11
55.838810537140319
 21
271.78915662650604
  0
POINT
  8
_0-a_
 62
    4
 10
77.715406330329643
 20
271.78915662650604
  0
POINT
  8
_0-a_
 62
    4
 10
55.838810537140319
 20
271.78915662650604
  0
LINE
  8
_0-a_
  6
CONTINUOUS
 62
    4
 10
77.715406330329643
 20
271.78915662650604
 11
77.715406330329643
 21
265.2831325301205
  0
LINE
  8
_0-a_
  6
CONTINUOUS
 62
    4
 10
55.838810537140319
 20
271.78915662650604
 11
55.838810537140319
 21
265.2831325301205
  0
TEXT
  8
_0-a_
 62
    3
 10
57.152108433734981
 20
272.28915662650604
 40
6
 41
1
 50
0
  1
21.877
  0
LINE
  8
_0-a_
  6
DASHED1
 62
    4
 10
66.777108433734952
 20
228.1987951807229
 11
95.413944106091392
 21
249.00467416419082
  0
LINE
  8
_0-a_
  6
CONTINUOUS
 62
    4
 10
102.17418398525844
 20
214.53614457831327
 11
66.777108433734952
 21
214.53614457831327
  0
POINT
  8
_0-a_
 62
    4
 10
102.17418398525844
 20
214.53614457831327
  0
POINT
  8
_0-a_
 62
    4
 10
66.777108433734952
 20
214.53614457831327
  0
LINE
  8
_0-a_
  6
CONTINUOUS
 62
    4
 10
102.17418398525844
 20
214.53614457831327
 11
102.17418398525844
 21
226.24698795180723
  0
LINE
  8
_0-a_
  6
CONTINUOUS
 62
    4
 10
66.777108433734952
 20
214.53614457831327
 11
66.777108433734952
 21
226.24698795180723
  0
TEXT
  8
_0-a_
 62
    3
 10
74.850646209496688
 20
215.03614457831327
 40
6
 41
1
 50
0
  1
35.397
  0
ARC
  8
_0-a_
  6
CONTINUOUS
 62
    4
 10
66.777108433734952
 20
228.1987951807229
 40
24.720325857004536
 50
0
 51
35.999999999999957
  0
POINT
  8
_0-a_
 62
    4
 10
91.497434290739491
 20
228.1987951807229
  0
POINT
  8
_0-a_
 62
    4
 10
86.776272158538063
 20
242.72903815133444
  0
LINE
  8
_0-a_
  6
CONTINUOUS
 62
    4
 10
85.220076618616872
 20
228.1987951807229
 11
91.497434290739491
 21
228.1987951807229
  0
LINE
  8
_0-a_
  6
CONTINUOUS
 62
    4
 10
81.697783122020894
 20
239.03929988829577
 11
86.776272158538063
 21
242.72903815133444
  0
TEXT
  8
_0-a_
 62
    3
 10
89.773235329048958
 20
239.44894363873897
 40
6
 41
1
 50
-72.000000000000028
  1
36ﾟ
  0
ENDSEC
  0
EOF
